STARTFONT 2.1
FONT -FontForge-Shadows Into Light-Book-R-Normal--32-320-72-72-P-132-ISO10646-1
SIZE 32 72 72
FONTBOUNDINGBOX 46 52 -6 -14
COMMENT "Generated by fontforge, http://fontforge.sourceforge.net"
COMMENT "Copyright (c) 2010, Kimberly Geswein (kimberlygeswein.com)"
STARTPROPERTIES 39
FOUNDRY "FontForge"
FAMILY_NAME "Shadows Into Light"
WEIGHT_NAME "Book"
SLANT "R"
SETWIDTH_NAME "Normal"
ADD_STYLE_NAME ""
PIXEL_SIZE 32
POINT_SIZE 320
RESOLUTION_X 72
RESOLUTION_Y 72
SPACING "P"
AVERAGE_WIDTH 132
CHARSET_REGISTRY "ISO10646"
CHARSET_ENCODING "1"
FONTNAME_REGISTRY ""
CHARSET_COLLECTIONS "ISO8859-2 ISO8859-9 ISO8859-4 ISO10646-1"
FONT_NAME "ShadowsIntoLight"
FACE_NAME "Shadows Into Light"
COPYRIGHT "Copyright (c) 2010, Kimberly Geswein (kimberlygeswein.com)"
FONT_VERSION "001.000"
FONT_ASCENT 26
FONT_DESCENT 6
UNDERLINE_POSITION 0
UNDERLINE_THICKNESS 0
X_HEIGHT 18
CAP_HEIGHT 21
RAW_ASCENT 799
RAW_DESCENT 200
NORM_SPACE 14
RELATIVE_WEIGHT 40
RELATIVE_SETWIDTH 50
SUPERSCRIPT_X 0
SUPERSCRIPT_Y 15
SUPERSCRIPT_SIZE 20
SUBSCRIPT_X 0
SUBSCRIPT_Y 4
SUBSCRIPT_SIZE 20
AVG_LOWERCASE_WIDTH 121
AVG_UPPERCASE_WIDTH 154
ENDPROPERTIES
CHARS 352
STARTCHAR space
ENCODING 32
SWIDTH 450 0
DWIDTH 14 0
BBX 1 1 0 0
BITMAP
00
ENDCHAR
STARTCHAR exclam
ENCODING 33
SWIDTH 137 0
DWIDTH 4 0
BBX 4 27 0 0
BITMAP
40
40
40
40
40
40
40
40
40
40
40
40
C0
C0
E0
40
00
00
00
00
00
00
00
00
00
10
30
ENDCHAR
STARTCHAR quotedbl
ENCODING 34
SWIDTH 212 0
DWIDTH 7 0
BBX 5 9 1 16
BITMAP
90
98
D8
D8
D8
D8
D8
48
40
ENDCHAR
STARTCHAR numbersign
ENCODING 35
SWIDTH 450 0
DWIDTH 14 0
BBX 13 18 2 3
BITMAP
0200
0200
2200
2300
3300
33E0
3300
FF00
F308
3330
33E0
3380
3780
3D00
7180
F180
1080
1100
ENDCHAR
STARTCHAR dollar
ENCODING 36
SWIDTH 445 0
DWIDTH 14 0
BBX 13 29 0 -4
BITMAP
0100
0300
0300
0300
0300
03E0
0700
1F00
3300
6300
6300
C300
C300
FFC0
1F38
0108
0108
0118
0130
01E0
0380
0F80
0980
0180
0080
0080
00C0
00C0
0080
ENDCHAR
STARTCHAR percent
ENCODING 37
SWIDTH 450 0
DWIDTH 14 0
BBX 14 25 0 0
BITMAP
0060
0060
0040
38C0
6CC0
4480
C580
4980
5980
7100
0300
0300
0200
0238
023C
0624
062C
0428
0438
0430
0400
0800
0800
0800
0800
ENDCHAR
STARTCHAR ampersand
ENCODING 38
SWIDTH 356 0
DWIDTH 11 0
BBX 11 14 0 4
BITMAP
0200
0200
0200
0200
0200
02E0
3BC0
4F80
4700
CE00
5A00
7200
6200
0200
ENDCHAR
STARTCHAR quotesingle
ENCODING 39
SWIDTH 155 0
DWIDTH 5 0
BBX 2 9 1 11
BITMAP
C0
C0
C0
C0
C0
40
40
40
40
ENDCHAR
STARTCHAR parenleft
ENCODING 40
SWIDTH 291 0
DWIDTH 9 0
BBX 9 26 0 0
BITMAP
0180
0300
0600
0600
0C00
0800
1800
1000
3000
2000
6000
6000
6000
4000
4000
4000
C000
4000
4000
4000
6000
2000
3000
1800
1C00
0700
ENDCHAR
STARTCHAR parenright
ENCODING 41
SWIDTH 241 0
DWIDTH 8 0
BBX 6 24 1 0
BITMAP
80
C0
60
30
10
18
08
08
0C
0C
04
04
04
04
04
0C
0C
08
18
18
10
30
20
20
ENDCHAR
STARTCHAR asterisk
ENCODING 42
SWIDTH 481 0
DWIDTH 15 0
BBX 15 16 0 2
BITMAP
0200
0200
0230
0260
02C0
7380
3F7E
0FE0
1F80
FFE0
0F30
0D18
1900
3100
2100
0100
ENDCHAR
STARTCHAR plus
ENCODING 43
SWIDTH 466 0
DWIDTH 15 0
BBX 15 14 0 4
BITMAP
0200
0200
0200
0200
0200
0200
027E
03E0
1F00
FE00
0600
0200
0200
0200
ENDCHAR
STARTCHAR comma
ENCODING 44
SWIDTH 112 0
DWIDTH 4 0
BBX 2 8 1 -4
BITMAP
40
C0
C0
C0
C0
C0
80
80
ENDCHAR
STARTCHAR hyphen
ENCODING 45
SWIDTH 399 0
DWIDTH 13 0
BBX 12 4 0 6
BITMAP
00F0
07E0
1F00
F000
ENDCHAR
STARTCHAR period
ENCODING 46
SWIDTH 128 0
DWIDTH 4 0
BBX 2 2 1 0
BITMAP
C0
C0
ENDCHAR
STARTCHAR slash
ENCODING 47
SWIDTH 306 0
DWIDTH 10 0
BBX 9 25 0 -3
BITMAP
0180
0100
0100
0300
0200
0200
0600
0600
0400
0C00
0C00
0800
0800
1800
1000
1000
3000
2000
2000
6000
6000
4000
C000
C000
4000
ENDCHAR
STARTCHAR zero
ENCODING 48
SWIDTH 308 0
DWIDTH 10 0
BBX 8 17 1 0
BITMAP
1C
26
42
42
83
81
81
81
81
C1
C1
C3
42
42
66
2C
38
ENDCHAR
STARTCHAR one
ENCODING 49
SWIDTH 112 0
DWIDTH 4 0
BBX 2 20 1 0
BITMAP
80
80
80
80
80
80
80
80
80
80
80
C0
C0
C0
C0
C0
C0
C0
C0
C0
ENDCHAR
STARTCHAR two
ENCODING 50
SWIDTH 512 0
DWIDTH 16 0
BBX 15 18 1 0
BITMAP
0F00
3F00
7180
E180
C180
8180
0180
0100
0300
0300
0200
0600
0600
0C0E
0C7C
1BE0
3E00
1000
ENDCHAR
STARTCHAR three
ENCODING 51
SWIDTH 461 0
DWIDTH 15 0
BBX 14 22 0 0
BITMAP
03C0
1FC0
3840
E0C0
4080
0180
0300
0600
0EC0
0FF8
1C0C
3804
0004
000C
000C
0018
0030
0070
00E0
0380
0700
0200
ENDCHAR
STARTCHAR four
ENCODING 52
SWIDTH 503 0
DWIDTH 16 0
BBX 16 25 0 0
BITMAP
0020
0060
0060
00E0
00E0
01A0
01A0
0320
0620
0620
0C20
0820
182F
30FE
7FE0
F820
8020
0020
0020
0020
0020
0020
0020
0020
0020
ENDCHAR
STARTCHAR five
ENCODING 53
SWIDTH 478 0
DWIDTH 15 0
BBX 14 22 1 0
BITMAP
003C
E3F8
FE00
F000
E000
C000
C000
C000
C3C0
CFC0
D840
D060
E040
C040
00C0
00C0
0180
0300
0700
0600
0C00
0800
ENDCHAR
STARTCHAR six
ENCODING 54
SWIDTH 375 0
DWIDTH 12 0
BBX 10 26 1 0
BITMAP
1000
3000
3000
3000
2000
2000
6000
6000
6000
4000
4000
4000
C000
C000
C3C0
8740
8C40
8840
9880
9080
B180
E100
E300
6600
7C00
3800
ENDCHAR
STARTCHAR seven
ENCODING 55
SWIDTH 458 0
DWIDTH 15 0
BBX 14 24 0 0
BITMAP
0018
07FC
7FF8
F018
0030
0030
0030
0020
0060
0060
0040
0040
0040
00C0
00C0
00C0
00C0
00C0
00C0
00C0
00C0
00C0
00C0
0040
ENDCHAR
STARTCHAR eight
ENCODING 56
SWIDTH 333 0
DWIDTH 11 0
BBX 9 22 1 0
BITMAP
0F00
3F00
6F00
4F80
C100
8100
8100
8100
8200
C200
6600
3C00
1C00
0C00
1C00
1200
2100
2100
2100
2100
3700
3E00
ENDCHAR
STARTCHAR nine
ENCODING 57
SWIDTH 475 0
DWIDTH 15 0
BBX 14 22 0 0
BITMAP
00E0
03F0
0638
0C38
1878
30E8
20C8
6188
4308
4708
DE08
7808
600C
000C
000C
000C
000C
000C
000C
000C
000C
000C
ENDCHAR
STARTCHAR colon
ENCODING 58
SWIDTH 120 0
DWIDTH 4 0
BBX 2 10 1 4
BITMAP
80
80
00
00
00
00
00
00
40
C0
ENDCHAR
STARTCHAR semicolon
ENCODING 59
SWIDTH 121 0
DWIDTH 4 0
BBX 2 13 1 -4
BITMAP
C0
00
00
00
00
40
C0
C0
C0
C0
C0
80
80
ENDCHAR
STARTCHAR less
ENCODING 60
SWIDTH 409 0
DWIDTH 13 0
BBX 12 16 1 4
BITMAP
0030
0060
00E0
01C0
0700
0E00
1C00
3000
6000
E000
7800
1C00
0F00
03C0
00E0
0060
ENDCHAR
STARTCHAR equal
ENCODING 61
SWIDTH 433 0
DWIDTH 14 0
BBX 12 8 1 3
BITMAP
07E0
FF80
7000
0000
00F0
07E0
7C00
E000
ENDCHAR
STARTCHAR greater
ENCODING 62
SWIDTH 450 0
DWIDTH 14 0
BBX 12 17 1 4
BITMAP
4000
F000
3C00
0F00
0380
00E0
0070
0020
0060
00C0
0180
0300
0E00
1C00
3800
7000
C000
ENDCHAR
STARTCHAR question
ENCODING 63
SWIDTH 445 0
DWIDTH 14 0
BBX 14 29 0 0
BITMAP
07F0
3F18
780C
E00C
0008
0018
0010
0030
0060
00C0
0380
0300
0600
0C00
0C00
0C00
0FC0
03C0
0000
0000
0000
0000
0000
0000
0000
0000
0000
0200
0300
ENDCHAR
STARTCHAR at
ENCODING 64
SWIDTH 945 0
DWIDTH 30 0
BBX 29 29 1 0
BITMAP
0001F000
000FFC00
003C0600
00700300
00C00100
01800180
03000080
060780C0
0C0F80C0
183880C0
106300C0
304300C0
20C700C0
618D0080
61090080
C3198180
C230C300
C660FE00
C7C00000
C3000000
C0000000
C0000038
C0000030
E00000E0
60000380
30000F00
3C003C00
0FFFE000
03FE0000
ENDCHAR
STARTCHAR A
ENCODING 65
SWIDTH 390 0
DWIDTH 13 0
BBX 14 24 1 0
BITMAP
3000
3000
3800
3800
3C00
2C00
6400
6600
6200
6200
6300
6300
611C
61FC
6180
6780
FD80
E0C0
C0C0
C040
C040
C060
8060
0020
ENDCHAR
STARTCHAR B
ENCODING 66
SWIDTH 537 0
DWIDTH 17 0
BBX 15 23 1 0
BITMAP
03E0
8F60
F820
F060
E040
C0C0
4180
431C
47FE
6F02
7C02
7806
3004
3008
2018
2030
3060
30C0
3180
1300
1600
1000
1000
ENDCHAR
STARTCHAR C
ENCODING 67
SWIDTH 487 0
DWIDTH 16 0
BBX 14 23 1 0
BITMAP
07C0
0EC0
0C40
1820
1000
3000
2000
6000
6000
6000
4000
C000
C000
C000
C00C
8018
8018
8030
8060
C0E0
C180
7F00
3E00
ENDCHAR
STARTCHAR D
ENCODING 68
SWIDTH 554 0
DWIDTH 18 0
BBX 16 24 1 0
BITMAP
2000
3000
3FE0
7FF8
F00E
B003
3003
3001
3003
3003
3002
1006
1004
100C
1018
1030
1030
1060
10C0
1180
1300
1600
0C00
0800
ENDCHAR
STARTCHAR E
ENCODING 69
SWIDTH 474 0
DWIDTH 15 0
BBX 14 23 1 0
BITMAP
40F0
C780
DE00
7800
6000
4000
4000
6000
6060
60C0
6380
6E00
7800
7000
6000
600C
6038
6060
61C0
6300
7E00
7800
2000
ENDCHAR
STARTCHAR F
ENCODING 70
SWIDTH 428 0
DWIDTH 14 0
BBX 12 22 1 0
BITMAP
0070
C1C0
C700
FC00
F000
C000
C000
C000
C000
C010
C070
C1C0
C300
CE00
F800
E000
C000
C000
4000
4000
4000
4000
ENDCHAR
STARTCHAR G
ENCODING 71
SWIDTH 591 0
DWIDTH 19 0
BBX 17 25 1 -4
BITMAP
007000
01F000
038000
060000
040000
0C0000
180000
100000
300780
203F80
607F00
400600
C00600
C00E00
C01E00
803E00
807600
C0E600
F3C600
7F0600
1C0600
000600
000600
000600
000200
ENDCHAR
STARTCHAR H
ENCODING 72
SWIDTH 424 0
DWIDTH 14 0
BBX 12 21 1 0
BITMAP
C0C0
C0C0
C0C0
C040
C040
C040
C040
C040
C0E0
C1E0
C3E0
CE60
F860
F060
C020
C020
4020
4020
4030
4030
4020
ENDCHAR
STARTCHAR I
ENCODING 73
SWIDTH 153 0
DWIDTH 5 0
BBX 2 24 2 0
BITMAP
80
80
80
C0
C0
C0
C0
C0
C0
C0
C0
C0
C0
C0
C0
C0
C0
C0
C0
C0
C0
C0
C0
40
ENDCHAR
STARTCHAR J
ENCODING 74
SWIDTH 371 0
DWIDTH 12 0
BBX 11 25 0 -2
BITMAP
0080
0080
0080
0080
0080
00C0
00C0
00C0
00C0
00C0
00C0
0040
0060
0060
0060
0060
0060
0060
8060
8060
4060
6060
2040
18C0
0F80
ENDCHAR
STARTCHAR K
ENCODING 75
SWIDTH 524 0
DWIDTH 17 0
BBX 16 22 1 0
BITMAP
8000
C000
C030
C060
40C0
4180
4180
4300
6600
6600
6C00
6800
7800
7000
7000
3000
3FFF
3FFE
3000
3000
3000
1000
ENDCHAR
STARTCHAR L
ENCODING 76
SWIDTH 537 0
DWIDTH 17 0
BBX 16 20 1 0
BITMAP
C000
C000
C000
C000
C000
C000
C000
C000
C000
C000
C000
C000
E000
E007
E01E
E070
E1C0
EF00
7E00
7000
ENDCHAR
STARTCHAR M
ENCODING 77
SWIDTH 682 0
DWIDTH 22 0
BBX 20 24 1 0
BITMAP
E00180
F00180
F00180
580380
480280
4C02C0
4406C0
4604C0
4204C0
430CC0
410C40
618840
609840
60D840
607040
607040
602060
600060
600060
600060
600060
600020
700030
700020
ENDCHAR
STARTCHAR N
ENCODING 78
SWIDTH 541 0
DWIDTH 17 0
BBX 15 24 1 0
BITMAP
0018
000C
000C
800C
C00C
E00C
F00C
F80C
D80C
4C0C
4604
4704
4304
6184
60C4
6064
606C
603C
201C
200E
200E
3006
3000
2000
ENDCHAR
STARTCHAR O
ENCODING 79
SWIDTH 382 0
DWIDTH 12 0
BBX 12 22 0 0
BITMAP
0100
07C0
0FE0
1860
1820
3030
3030
3030
6030
6030
6030
6030
4020
4060
4060
C060
40C0
40C0
6180
7380
3F00
1C00
ENDCHAR
STARTCHAR P
ENCODING 80
SWIDTH 508 0
DWIDTH 16 0
BBX 15 26 1 0
BITMAP
00E0
27F8
7C1C
700C
E006
E004
600C
6018
6038
6070
61C0
6780
7E00
7800
6000
6000
6000
6000
2000
2000
2000
2000
2000
2000
2000
2000
ENDCHAR
STARTCHAR Q
ENCODING 81
SWIDTH 512 0
DWIDTH 16 0
BBX 14 24 1 0
BITMAP
0DE0
1FF0
3810
3018
6008
6008
6008
400C
C00C
C00C
C00C
C00C
808C
80CC
8048
C068
C078
C038
4030
4038
6038
306C
1FCC
0F04
ENDCHAR
STARTCHAR R
ENCODING 82
SWIDTH 503 0
DWIDTH 16 0
BBX 15 25 1 0
BITMAP
C0C0
C7F8
DE1C
F00C
E00C
C018
C030
C0C0
C380
C600
DC00
F000
E000
E000
F800
DE00
C780
C1E0
C078
C01E
C004
C000
C000
C000
C000
ENDCHAR
STARTCHAR S
ENCODING 83
SWIDTH 541 0
DWIDTH 17 0
BBX 17 22 0 1
BITMAP
00F800
03F800
060000
0C0000
180000
300000
600000
600000
400000
C00000
C00000
600000
700000
1F8000
01FE00
000300
000180
000300
000E00
007800
03E000
0F0000
ENDCHAR
STARTCHAR T
ENCODING 84
SWIDTH 595 0
DWIDTH 19 0
BBX 22 23 0 0
BITMAP
002004
003FF8
07FFC0
FF3000
603000
003000
003000
001000
001000
001000
001000
001800
001800
001800
001800
001800
001800
001800
000C00
000C00
000C00
000C00
000C00
ENDCHAR
STARTCHAR U
ENCODING 85
SWIDTH 450 0
DWIDTH 14 0
BBX 13 24 1 -4
BITMAP
0010
C030
C030
C030
C030
C030
C030
C070
C070
C070
C070
C070
C0F0
C0D0
C090
C190
4110
6310
7E18
1818
0018
0018
0018
0010
ENDCHAR
STARTCHAR V
ENCODING 86
SWIDTH 524 0
DWIDTH 17 0
BBX 16 23 0 0
BITMAP
0003
0003
0003
0002
C006
6006
6006
3004
300C
380C
180C
180C
0C18
0C18
0618
0618
0338
0330
01B0
01B0
00F0
00E0
0060
ENDCHAR
STARTCHAR W
ENCODING 87
SWIDTH 878 0
DWIDTH 28 0
BBX 26 24 1 0
BITMAP
00000080
000000C0
000000C0
00000080
80060180
C00E0180
C00E0180
600B0100
600B0300
601B0300
30198300
30118200
30318600
3030C600
1820C600
18604400
18606C00
1C406C00
0CC03C00
0CC03C00
0EC01800
07801800
07800000
03800000
ENDCHAR
STARTCHAR X
ENCODING 88
SWIDTH 461 0
DWIDTH 15 0
BBX 13 22 1 0
BITMAP
0018
4010
6030
6020
3060
30C0
18C0
1980
0D80
0F00
0600
0600
0F00
0F00
1980
1980
30C0
60C0
6060
C060
4030
0030
ENDCHAR
STARTCHAR Y
ENCODING 89
SWIDTH 483 0
DWIDTH 15 0
BBX 15 25 0 0
BITMAP
0006
0006
0004
0004
000C
C00C
6008
7018
3018
1810
0C30
0E30
0720
03E0
01E0
00C0
00C0
00C0
0080
0180
0180
0300
0300
0300
0200
ENDCHAR
STARTCHAR Z
ENCODING 90
SWIDTH 670 0
DWIDTH 21 0
BBX 20 22 1 0
BITMAP
FFFF80
FFFF80
000300
000600
000E00
001C00
003800
003000
006000
00E000
01C000
018000
030000
060000
0E0000
1C0000
180000
300000
600000
E000F0
FFFFF0
FFFF00
ENDCHAR
STARTCHAR bracketleft
ENCODING 91
SWIDTH 470 0
DWIDTH 15 0
BBX 13 39 1 -3
BITMAP
00F0
FFC0
C000
C000
C000
C000
C000
C000
C000
C000
C000
4000
4000
4000
4000
4000
6000
6000
6000
6000
6000
6000
2000
2000
2000
2000
2000
2000
2000
3000
3000
3000
3000
3000
3000
3008
30F8
3FC0
3C00
ENDCHAR
STARTCHAR backslash
ENCODING 92
SWIDTH 554 0
DWIDTH 18 0
BBX 17 32 0 0
BITMAP
C00000
600000
600000
300000
100000
180000
080000
0C0000
040000
060000
020000
030000
010000
018000
018000
00C000
00C000
006000
006000
003000
003000
001800
001800
000C00
000C00
000E00
000600
000700
000300
000380
000180
000180
ENDCHAR
STARTCHAR bracketright
ENCODING 93
SWIDTH 512 0
DWIDTH 16 0
BBX 16 41 0 -3
BITMAP
003C
FFFC
FC0C
000C
000C
000C
000C
000C
000C
000C
000C
000C
000C
000C
000C
000C
000C
000C
000C
0004
0004
0004
0004
0004
0006
0006
0006
0006
0006
0006
0006
0006
0006
0006
0006
0006
0006
0006
000F
007E
03F8
ENDCHAR
STARTCHAR asciicircum
ENCODING 94
SWIDTH 390 0
DWIDTH 13 0
BBX 11 9 1 21
BITMAP
0800
1C00
1E00
3300
2180
60C0
4060
C060
8000
ENDCHAR
STARTCHAR underscore
ENCODING 95
SWIDTH 612 0
DWIDTH 20 0
BBX 19 6 0 0
BITMAP
000040
0007E0
007FC0
07F800
7F8000
F00000
ENDCHAR
STARTCHAR grave
ENCODING 96
SWIDTH 155 0
DWIDTH 5 0
BBX 3 5 1 19
BITMAP
80
80
C0
60
60
ENDCHAR
STARTCHAR a
ENCODING 97
SWIDTH 366 0
DWIDTH 12 0
BBX 11 17 0 0
BITMAP
03C0
07C0
0EC0
1CC0
18C0
38C0
31C0
31C0
6340
6340
C660
CE60
CC60
D860
F860
7020
4020
ENDCHAR
STARTCHAR b
ENCODING 98
SWIDTH 442 0
DWIDTH 14 0
BBX 12 27 1 0
BITMAP
4000
6000
6000
6000
6000
4000
4000
4000
4000
C000
C000
C3E0
CFF0
DC30
D830
F010
E030
C030
C030
C060
C0E0
C1C0
C380
CF00
FC00
F800
E000
ENDCHAR
STARTCHAR c
ENCODING 99
SWIDTH 390 0
DWIDTH 13 0
BBX 10 19 1 0
BITMAP
1C00
3E00
7600
6600
6200
4200
C000
C000
C000
C000
8000
8040
8040
80C0
C0C0
C0C0
6180
7F00
3C00
ENDCHAR
STARTCHAR d
ENCODING 100
SWIDTH 316 0
DWIDTH 10 0
BBX 9 31 0 -3
BITMAP
0180
0180
0180
0180
0180
0180
0180
0180
0180
0180
0080
0780
1F80
3980
3180
6180
6180
6180
4180
C180
C180
C380
C380
C280
C680
CC80
7880
7080
0080
0080
0080
ENDCHAR
STARTCHAR e
ENCODING 101
SWIDTH 461 0
DWIDTH 15 0
BBX 14 17 0 0
BITMAP
0380
0FE0
0C60
1860
18E0
3380
3F00
7C00
7000
E00C
201C
2018
2030
2060
20C0
3F80
1E00
ENDCHAR
STARTCHAR f
ENCODING 102
SWIDTH 345 0
DWIDTH 11 0
BBX 10 29 1 0
BITMAP
0800
1E00
1F00
1B00
3900
3000
3000
3000
3000
3000
3000
3000
3040
33C0
3F80
3E00
7000
F000
3000
3000
3000
3000
3000
1000
1000
1800
1800
1800
1000
ENDCHAR
STARTCHAR g
ENCODING 103
SWIDTH 437 0
DWIDTH 14 0
BBX 13 32 0 -14
BITMAP
00C0
03F0
0770
0C70
0870
18F0
30B0
31B0
21B0
6330
6330
4638
4638
CC38
7818
7818
0018
0018
0018
0018
0018
0018
0030
0030
0030
0020
0060
0060
00C0
0380
1F00
0C00
ENDCHAR
STARTCHAR h
ENCODING 104
SWIDTH 466 0
DWIDTH 15 0
BBX 13 24 1 0
BITMAP
8000
C000
C000
C000
C000
C000
C000
C000
C060
C3F8
C798
C718
CE18
CC18
DC18
D818
D818
F018
F018
E018
E018
C018
C018
8018
ENDCHAR
STARTCHAR i
ENCODING 105
SWIDTH 132 0
DWIDTH 4 0
BBX 2 24 1 0
BITMAP
80
80
00
00
00
00
C0
C0
C0
C0
C0
C0
C0
C0
C0
C0
C0
C0
C0
C0
C0
C0
C0
C0
ENDCHAR
STARTCHAR j
ENCODING 106
SWIDTH 112 0
DWIDTH 4 0
BBX 9 37 -6 -11
BITMAP
0100
0180
0000
0000
0000
0000
0000
0000
0000
0000
0180
0100
0100
0100
0180
0180
0180
0180
0180
0180
0180
0180
0180
0180
0080
0080
0080
0080
0080
0080
0080
0180
C180
6180
3300
1F00
0600
ENDCHAR
STARTCHAR k
ENCODING 107
SWIDTH 428 0
DWIDTH 14 0
BBX 12 26 1 -1
BITMAP
4000
4000
6000
6000
6000
6000
E030
C030
C060
C0E0
C0C0
C1C0
C380
C300
C700
CE00
DC00
F800
F000
E000
F800
DE00
C7F0
C0F0
8020
8000
ENDCHAR
STARTCHAR l
ENCODING 108
SWIDTH 137 0
DWIDTH 4 0
BBX 3 26 1 1
BITMAP
80
80
80
C0
C0
C0
C0
C0
40
40
40
40
40
40
40
40
40
40
40
40
40
40
40
40
40
E0
ENDCHAR
STARTCHAR m
ENCODING 109
SWIDTH 579 0
DWIDTH 19 0
BBX 17 19 1 0
BITMAP
C00000
C00000
C00000
C00C00
CE1E00
CF1E00
DF3600
5B3600
596200
596200
51E200
71C200
71C200
70C200
608300
600300
600300
600180
600000
ENDCHAR
STARTCHAR n
ENCODING 110
SWIDTH 483 0
DWIDTH 15 0
BBX 13 19 1 0
BITMAP
0040
81E0
C3F0
C710
C610
C618
CC18
CC18
CC18
C818
7818
7818
7018
7018
7008
7008
7008
6008
6000
ENDCHAR
STARTCHAR o
ENCODING 111
SWIDTH 266 0
DWIDTH 9 0
BBX 7 18 1 0
BITMAP
20
78
7C
44
C6
C6
86
86
86
86
86
86
86
8C
8C
D8
F8
60
ENDCHAR
STARTCHAR p
ENCODING 112
SWIDTH 482 0
DWIDTH 15 0
BBX 14 26 1 -9
BITMAP
8000
C1F0
C79C
CC0C
B00C
E018
C018
C030
C060
C1C0
C380
CF00
DC00
F800
F000
C000
C000
C000
C000
C000
C000
C000
C000
C000
8000
8000
ENDCHAR
STARTCHAR q
ENCODING 113
SWIDTH 408 0
DWIDTH 13 0
BBX 13 24 1 -9
BITMAP
0380
0F80
1CC0
30C0
30C0
60C0
41C0
C140
C140
8360
8360
8660
FC60
7060
0020
0020
0030
0030
0030
0030
0030
0030
0010
0018
ENDCHAR
STARTCHAR r
ENCODING 114
SWIDTH 396 0
DWIDTH 13 0
BBX 11 16 1 0
BITMAP
83E0
C7C0
CC00
CC00
D800
5800
5800
5800
5800
7800
7800
7000
3000
3000
3000
3000
ENDCHAR
STARTCHAR s
ENCODING 115
SWIDTH 366 0
DWIDTH 12 0
BBX 10 17 1 -1
BITMAP
0F80
1F00
3000
6000
C000
C000
8000
8380
FFC0
F840
00C0
00C0
0180
0700
0E00
3C00
3000
ENDCHAR
STARTCHAR t
ENCODING 116
SWIDTH 268 0
DWIDTH 9 0
BBX 10 25 -1 -1
BITMAP
1800
1800
1800
1800
1800
1800
18C0
1FC0
3F00
F800
F800
9800
1800
1800
1800
1800
1800
1800
1800
1800
1800
1800
1800
1800
0800
ENDCHAR
STARTCHAR u
ENCODING 117
SWIDTH 387 0
DWIDTH 12 0
BBX 10 17 1 -1
BITMAP
8000
C080
C080
C080
C080
C180
C180
C180
C180
C180
C380
4380
47C0
6EC0
7CC0
38C0
0040
ENDCHAR
STARTCHAR v
ENCODING 118
SWIDTH 354 0
DWIDTH 11 0
BBX 10 17 0 0
BITMAP
00C0
00C0
00C0
40C0
E0C0
60C0
70C0
30C0
18C0
18C0
0CC0
0EC0
06C0
03C0
03C0
01C0
00C0
ENDCHAR
STARTCHAR w
ENCODING 119
SWIDTH 566 0
DWIDTH 18 0
BBX 16 16 1 0
BITMAP
8302
C383
C383
63C3
6263
6263
3633
3613
1E1B
1E0F
1E0F
0E07
0E03
0E03
0600
0600
ENDCHAR
STARTCHAR x
ENCODING 120
SWIDTH 454 0
DWIDTH 15 0
BBX 13 21 1 -2
BITMAP
0300
0300
0300
0300
C300
C300
E300
7200
3A00
1E00
0E00
0700
0F80
0CC0
0C60
0C30
1818
1808
1800
1800
1000
ENDCHAR
STARTCHAR y
ENCODING 121
SWIDTH 363 0
DWIDTH 12 0
BBX 10 29 1 -12
BITMAP
0040
0040
80C0
C0C0
C0C0
60C0
70C0
30C0
18C0
18C0
0CC0
0EC0
07C0
03C0
03C0
01C0
00C0
0080
0080
0080
0080
0180
0180
0180
0180
0180
0180
0180
0180
ENDCHAR
STARTCHAR z
ENCODING 122
SWIDTH 618 0
DWIDTH 20 0
BBX 20 16 1 0
BITMAP
007000
03F000
1F6000
F86000
E0E000
00C000
01C000
018000
030000
030000
060000
060000
0603F0
0C7FE0
0FFC00
0F8000
ENDCHAR
STARTCHAR braceleft
ENCODING 123
SWIDTH 348 0
DWIDTH 11 0
BBX 11 30 0 -3
BITMAP
07C0
0C60
1800
3000
3000
3000
1000
1800
0800
0C00
0C00
7C00
6000
3000
1800
0800
7C00
7800
E000
C000
C000
C000
C000
4000
6000
6000
3000
3C00
0F80
0100
ENDCHAR
STARTCHAR bar
ENCODING 124
SWIDTH 137 0
DWIDTH 4 0
BBX 3 26 1 1
BITMAP
80
80
80
C0
C0
C0
C0
C0
40
40
40
40
40
40
40
40
40
40
40
40
40
40
40
40
40
E0
ENDCHAR
STARTCHAR braceright
ENCODING 125
SWIDTH 348 0
DWIDTH 11 0
BBX 10 31 0 -4
BITMAP
1000
FC00
8600
0300
0300
0300
0300
0300
0200
0600
0C00
0E00
03C0
0180
0300
0200
0600
0780
03C0
00C0
00C0
0040
00C0
00C0
00C0
0080
0180
0380
0F00
3E00
2000
ENDCHAR
STARTCHAR asciitilde
ENCODING 126
SWIDTH 458 0
DWIDTH 15 0
BBX 12 5 1 18
BITMAP
3C00
7E30
C670
C7E0
03C0
ENDCHAR
STARTCHAR nonbreakingspace
ENCODING 160
SWIDTH 450 0
DWIDTH 14 0
BBX 1 1 0 0
BITMAP
00
ENDCHAR
STARTCHAR exclamdown
ENCODING 161
SWIDTH 137 0
DWIDTH 4 0
BBX 3 21 1 -5
BITMAP
20
40
00
00
00
00
00
00
80
C0
C0
80
80
80
80
80
80
80
80
80
80
ENDCHAR
STARTCHAR cent
ENCODING 162
SWIDTH 394 0
DWIDTH 13 0
BBX 10 24 1 -2
BITMAP
0800
0800
0C00
1C00
3E00
7F00
6D80
6480
C400
C400
C400
C400
C400
8400
8440
8440
84C0
C4C0
C4C0
6580
7F00
3E00
0400
0600
ENDCHAR
STARTCHAR sterling
ENCODING 163
SWIDTH 539 0
DWIDTH 17 0
BBX 16 21 0 0
BITMAP
003E
00F6
0182
0301
0300
0600
0400
04E0
FFC0
FC00
0C00
0800
0800
1800
1800
1800
1800
1878
19FF
1F87
0C00
ENDCHAR
STARTCHAR currency
ENCODING 164
SWIDTH 500 0
DWIDTH 16 0
BBX 13 18 1 3
BITMAP
0018
0030
1830
1FF0
1FE0
1CC0
1840
1860
1860
1860
1860
1860
18C0
3DC0
3FC0
6760
E060
C020
ENDCHAR
STARTCHAR yen
ENCODING 165
SWIDTH 478 0
DWIDTH 15 0
BBX 12 26 2 0
BITMAP
0060
6070
60E0
30E0
31C0
3980
1980
1F00
0F00
0E00
0600
0600
0600
0600
1FE0
FFC0
0600
0600
3FE0
FE00
0600
0600
0600
0600
0600
0400
ENDCHAR
STARTCHAR brokenbar
ENCODING 166
SWIDTH 137 0
DWIDTH 4 0
BBX 3 26 1 1
BITMAP
80
80
80
C0
C0
C0
C0
C0
40
40
00
00
40
40
40
40
40
40
40
40
40
40
40
40
40
E0
ENDCHAR
STARTCHAR section
ENCODING 167
SWIDTH 366 0
DWIDTH 12 0
BBX 10 25 1 -1
BITMAP
0700
1F00
3000
6000
C000
C000
8000
8100
CFC0
FFC0
70C0
60C0
C180
C300
8600
8F80
FFC0
F840
00C0
00C0
0180
0700
0E00
3C00
3000
ENDCHAR
STARTCHAR dieresis
ENCODING 168
SWIDTH 306 0
DWIDTH 10 0
BBX 7 2 2 22
BITMAP
CE
CC
ENDCHAR
STARTCHAR copyright
ENCODING 169
SWIDTH 485 0
DWIDTH 16 0
BBX 15 22 0 0
BITMAP
00C0
03F0
0738
0E0C
1C0C
1986
33C6
36C6
2646
6406
6C06
4C06
4C1E
4C1C
443C
C7EC
43D8
4030
6060
71C0
3F80
1E00
ENDCHAR
STARTCHAR ordfeminine
ENCODING 170
SWIDTH 227 0
DWIDTH 7 0
BBX 7 8 0 4
BITMAP
1C
34
64
4C
DC
94
A2
C2
ENDCHAR
STARTCHAR guillemotleft
ENCODING 171
SWIDTH 652 0
DWIDTH 21 0
BBX 18 17 1 4
BITMAP
000040
0030C0
006180
00E700
01CE00
071C00
0E3800
1CE000
31C000
638000
E1C000
78E000
1C7800
0F1E00
03C780
00E380
006100
ENDCHAR
STARTCHAR logicalnot
ENCODING 172
SWIDTH 539 0
DWIDTH 17 0
BBX 14 9 2 4
BITMAP
00F8
FFFC
000C
000C
000C
000C
000C
000C
000C
ENDCHAR
STARTCHAR uni00AD
ENCODING 173
SWIDTH 399 0
DWIDTH 13 0
BBX 12 4 0 6
BITMAP
00F0
07E0
1F00
F000
ENDCHAR
STARTCHAR registered
ENCODING 174
SWIDTH 382 0
DWIDTH 12 0
BBX 15 21 0 0
BITMAP
03E0
07F0
0C38
180C
100C
34E4
3736
2436
6466
65C6
6706
4706
45C6
446E
CC3C
4C0C
4018
6030
70E0
3FC0
1F00
ENDCHAR
STARTCHAR macron
ENCODING 175
SWIDTH 399 0
DWIDTH 13 0
BBX 12 3 0 21
BITMAP
00F0
7FF0
E000
ENDCHAR
STARTCHAR degree
ENCODING 176
SWIDTH 201 0
DWIDTH 6 0
BBX 5 5 1 12
BITMAP
F0
98
88
D8
60
ENDCHAR
STARTCHAR plusminus
ENCODING 177
SWIDTH 466 0
DWIDTH 15 0
BBX 12 16 0 2
BITMAP
0200
0200
0200
0200
0200
0200
0270
03F0
1F00
FE00
0600
0200
0200
02F0
3FF0
3800
ENDCHAR
STARTCHAR twosuperior
ENCODING 178
SWIDTH 318 0
DWIDTH 10 0
BBX 8 10 1 5
BITMAP
78
C8
88
08
08
10
10
21
3E
60
ENDCHAR
STARTCHAR threesuperior
ENCODING 179
SWIDTH 280 0
DWIDTH 9 0
BBX 8 13 0 5
BITMAP
04
3C
C4
08
18
1E
71
01
01
03
06
0C
10
ENDCHAR
STARTCHAR acute
ENCODING 180
SWIDTH 155 0
DWIDTH 5 0
BBX 3 4 1 19
BITMAP
20
60
C0
80
ENDCHAR
STARTCHAR mu
ENCODING 181
SWIDTH 387 0
DWIDTH 12 0
BBX 10 21 1 -4
BITMAP
C080
C080
C080
C0C0
C0C0
C1C0
C1C0
C1C0
C1C0
C1C0
C3C0
C3C0
C6C0
EEC0
B880
A000
8000
8000
8000
8000
8000
ENDCHAR
STARTCHAR paragraph
ENCODING 182
SWIDTH 447 0
DWIDTH 14 0
BBX 12 20 1 0
BITMAP
1FE0
7FE0
FFA0
FF20
FFA0
FFA0
F9A0
01B0
01B0
01B0
01B0
01B0
01B0
01B0
01B0
01B0
00B0
0090
0090
0080
ENDCHAR
STARTCHAR periodcentered
ENCODING 183
SWIDTH 128 0
DWIDTH 4 0
BBX 2 2 1 7
BITMAP
C0
C0
ENDCHAR
STARTCHAR cedilla
ENCODING 184
SWIDTH 322 0
DWIDTH 10 0
BBX 7 12 2 -10
BITMAP
80
C0
C0
C0
E0
F8
3C
0E
06
1E
FC
60
ENDCHAR
STARTCHAR onesuperior
ENCODING 185
SWIDTH 112 0
DWIDTH 4 0
BBX 1 11 1 5
BITMAP
80
80
80
80
80
80
80
80
80
80
80
ENDCHAR
STARTCHAR ordmasculine
ENCODING 186
SWIDTH 212 0
DWIDTH 7 0
BBX 6 9 0 4
BITMAP
38
64
44
44
44
C4
4C
48
70
ENDCHAR
STARTCHAR guillemotright
ENCODING 187
SWIDTH 625 0
DWIDTH 20 0
BBX 17 18 1 4
BITMAP
010000
438000
F1E000
3C7000
0F3C00
038F00
00E380
007080
002180
006100
00C300
018E00
031C00
0E3800
1CE000
39C000
738000
C20000
ENDCHAR
STARTCHAR onequarter
ENCODING 188
SWIDTH 678 0
DWIDTH 22 0
BBX 19 25 1 -3
BITMAP
018000
010000
030000
030000
820000
820000
860200
840600
840600
8C0E00
8C1A00
883200
982200
984200
908260
919F80
B7E200
200200
200200
600200
400200
400200
C00200
C00000
800000
ENDCHAR
STARTCHAR onehalf
ENCODING 189
SWIDTH 693 0
DWIDTH 22 0
BBX 17 25 2 -3
BITMAP
008000
018000
018000
010000
830000
830000
820000
820000
860000
84F000
859800
8F0800
8E1800
881800
981000
981000
903000
302000
306080
204700
20F800
608000
400000
400000
400000
ENDCHAR
STARTCHAR threequarters
ENCODING 190
SWIDTH 868 0
DWIDTH 28 0
BBX 21 25 1 -3
BITMAP
000080
1F0180
710180
C20100
020340
0403C0
0802C0
1FC7C0
386740
602740
002640
006E40
00CC40
018878
031BE0
0E3C40
081040
003040
003040
002040
002040
006040
004040
004000
004000
ENDCHAR
STARTCHAR questiondown
ENCODING 191
SWIDTH 541 0
DWIDTH 17 0
BBX 14 27 3 -2
BITMAP
0300
0300
0000
0000
0000
0000
0000
0000
0000
0000
0F00
1F80
01C0
00C0
0180
0380
0700
0C00
1800
3000
6000
C000
C000
803C
C0F8
FFC0
1C00
ENDCHAR
STARTCHAR Agrave
ENCODING 192
SWIDTH 390 0
DWIDTH 13 0
BBX 15 30 1 -1
BITMAP
1000
1800
1800
0C00
0400
0000
1000
1800
3800
3C00
3C00
3400
3600
3200
3200
2300
2100
6180
619E
61FE
61C0
63C0
7EC0
70C0
6040
4060
4060
C020
C020
0030
ENDCHAR
STARTCHAR Aacute
ENCODING 193
SWIDTH 390 0
DWIDTH 13 0
BBX 14 30 1 0
BITMAP
1800
3800
7000
6000
0000
0000
3000
3000
3800
3800
3C00
2C00
6400
6600
6200
6200
6300
6300
611C
61FC
6180
6780
FD80
E0C0
C0C0
C040
C040
C060
8060
0020
ENDCHAR
STARTCHAR Acircumflex
ENCODING 194
SWIDTH 390 0
DWIDTH 13 0
BBX 16 33 -1 0
BITMAP
0800
0C00
1E00
1300
3180
60C0
4060
C020
8000
0C00
0C00
0E00
0E00
0F00
0B00
1900
1980
1880
1880
18C0
18C0
1847
187F
1860
19E0
3F60
3830
3030
3010
3010
3018
2018
0008
ENDCHAR
STARTCHAR Atilde
ENCODING 195
SWIDTH 390 0
DWIDTH 13 0
BBX 15 32 0 0
BITMAP
3800
FC70
CC60
86E0
0380
0000
0000
0000
1800
1800
1C00
1C00
1E00
1600
3200
3300
3100
3100
3180
3180
308E
30FE
30C0
33C0
7EC0
7060
6060
6020
6020
6030
4030
0010
ENDCHAR
STARTCHAR Adieresis
ENCODING 196
SWIDTH 390 0
DWIDTH 13 0
BBX 14 28 1 0
BITMAP
6600
6600
0000
0000
3000
3000
3800
3800
3C00
2C00
6400
6600
6200
6200
6300
6300
611C
61FC
6180
6780
FD80
E0C0
C0C0
C040
C040
C060
8060
0020
ENDCHAR
STARTCHAR Aring
ENCODING 197
SWIDTH 390 0
DWIDTH 13 0
BBX 15 28 0 0
BITMAP
7E00
E600
C300
C600
7E00
1800
1C00
1C00
1E00
1600
3200
3300
3100
3100
3180
3180
308E
30FE
30C0
33C0
7EC0
7060
6060
6020
6020
6030
4030
0010
ENDCHAR
STARTCHAR AE
ENCODING 198
SWIDTH 708 0
DWIDTH 23 0
BBX 21 23 1 1
BITMAP
300000
3081E0
38C780
38DE00
3CF800
2CE000
64C000
664000
624000
624040
634180
634600
615C00
61F000
61E000
67E000
FCE018
E0E030
C0E0E0
C06180
C06700
C07C00
807800
ENDCHAR
STARTCHAR Ccedilla
ENCODING 199
SWIDTH 487 0
DWIDTH 16 0
BBX 14 33 1 -10
BITMAP
07C0
0EC0
0C40
1820
1000
3000
2000
6000
6000
6000
4000
C000
C000
C000
C00C
8018
8018
8030
8060
C0E0
C180
7F00
3C00
0800
0800
0C00
0E00
0F80
01C0
00E0
00E0
07E0
0F80
ENDCHAR
STARTCHAR Egrave
ENCODING 200
SWIDTH 474 0
DWIDTH 15 0
BBX 14 29 1 0
BITMAP
1000
1800
1C00
0C00
0400
0000
40F0
C780
DE00
7800
6000
4000
4000
6000
6060
60C0
6380
6E00
7800
7000
6000
600C
6038
6060
61C0
6300
7E00
7800
2000
ENDCHAR
STARTCHAR Eacute
ENCODING 201
SWIDTH 474 0
DWIDTH 15 0
BBX 14 28 1 0
BITMAP
0100
0300
0600
0400
0000
40F0
C780
DE00
7800
6000
4000
4000
6000
6060
60C0
6380
6E00
7800
7000
6000
600C
6038
6060
61C0
6300
7E00
7800
2000
ENDCHAR
STARTCHAR Ecircumflex
ENCODING 202
SWIDTH 474 0
DWIDTH 15 0
BBX 14 34 1 0
BITMAP
0200
0700
0D80
0C80
18C0
1060
3030
2018
6000
0000
0000
40F0
C780
DE00
7800
6000
4000
4000
6000
6060
60C0
6380
6E00
7800
7000
6000
600C
6038
6060
61C0
6300
7E00
7800
2000
ENDCHAR
STARTCHAR Edieresis
ENCODING 203
SWIDTH 474 0
DWIDTH 15 0
BBX 14 29 1 0
BITMAP
1980
1980
0000
0000
0000
0000
40F0
C780
DE00
7800
6000
4000
4000
6000
6060
60C0
6380
6E00
7800
7000
6000
600C
6038
6060
61C0
6300
7E00
7800
2000
ENDCHAR
STARTCHAR Igrave
ENCODING 204
SWIDTH 153 0
DWIDTH 5 0
BBX 3 30 1 0
BITMAP
80
80
C0
60
60
00
40
40
40
60
60
60
60
60
60
60
60
60
60
60
60
60
60
60
60
60
60
60
60
20
ENDCHAR
STARTCHAR Iacute
ENCODING 205
SWIDTH 153 0
DWIDTH 5 0
BBX 4 30 1 0
BITMAP
30
70
E0
C0
00
00
40
40
40
60
60
60
60
60
60
60
60
60
60
60
60
60
60
60
60
60
60
60
60
20
ENDCHAR
STARTCHAR Icircumflex
ENCODING 206
SWIDTH 153 0
DWIDTH 5 0
BBX 11 33 -2 0
BITMAP
0800
1C00
1600
3300
2100
6180
C0E0
8060
8000
0800
0800
0800
0C00
0C00
0C00
0C00
0C00
0C00
0C00
0C00
0C00
0C00
0C00
0C00
0C00
0C00
0C00
0C00
0C00
0C00
0C00
0C00
0400
ENDCHAR
STARTCHAR Idieresis
ENCODING 207
SWIDTH 153 0
DWIDTH 5 0
BBX 6 28 0 0
BITMAP
CC
CC
00
00
20
20
20
30
30
30
30
30
30
30
30
30
30
30
30
30
30
30
30
30
30
30
30
10
ENDCHAR
STARTCHAR Eth
ENCODING 208
SWIDTH 554 0
DWIDTH 18 0
BBX 16 24 1 0
BITMAP
2000
3000
3FE0
7FF8
F00E
B003
3003
3001
3003
3003
3002
1006
1004
100C
1018
1330
FF30
FC60
10C0
1180
1300
1600
0C00
0800
ENDCHAR
STARTCHAR Ntilde
ENCODING 209
SWIDTH 541 0
DWIDTH 17 0
BBX 15 30 1 0
BITMAP
3C00
7E30
E670
C3E0
03C0
0000
0018
000C
000C
800C
C00C
E00C
F00C
F80C
D80C
4C0C
4604
4704
4304
6184
60C4
6064
606C
603C
201C
200E
200E
3006
3000
2000
ENDCHAR
STARTCHAR Ograve
ENCODING 210
SWIDTH 382 0
DWIDTH 12 0
BBX 12 29 0 0
BITMAP
0100
0180
0180
00C0
0040
0000
0000
0100
07C0
0FE0
1860
1820
3030
3030
3030
6030
6030
6030
6030
4020
4060
4060
C060
40C0
40C0
6180
7380
3F00
1C00
ENDCHAR
STARTCHAR Oacute
ENCODING 211
SWIDTH 382 0
DWIDTH 12 0
BBX 12 27 0 0
BITMAP
0300
0700
0E00
0C00
0000
0100
07C0
0FE0
1860
1820
3030
3030
3030
6030
6030
6030
6030
4020
4060
4060
C060
40C0
40C0
6180
7380
3F00
1C00
ENDCHAR
STARTCHAR Ocircumflex
ENCODING 212
SWIDTH 382 0
DWIDTH 12 0
BBX 12 30 0 0
BITMAP
0400
0E00
0B00
1980
1080
30C0
6070
4030
4100
07C0
0FE0
1860
1820
3030
3030
3030
6030
6030
6030
6030
4020
4060
4060
C060
40C0
40C0
6180
7380
3F00
1C00
ENDCHAR
STARTCHAR Otilde
ENCODING 213
SWIDTH 382 0
DWIDTH 12 0
BBX 14 28 0 0
BITMAP
0E00
3F1C
3318
21B0
00E0
0000
0100
07C0
0FE0
1860
1820
3030
3030
3030
6030
6030
6030
6030
4020
4060
4060
C060
40C0
40C0
6180
7380
3F00
1C00
ENDCHAR
STARTCHAR Odieresis
ENCODING 214
SWIDTH 382 0
DWIDTH 12 0
BBX 12 26 0 0
BITMAP
0660
0660
0000
0000
0100
07C0
0FE0
1860
1820
3030
3030
3030
6030
6030
6030
6030
4020
4060
4060
C060
40C0
40C0
6180
7380
3F00
1C00
ENDCHAR
STARTCHAR multiply
ENCODING 215
SWIDTH 454 0
DWIDTH 15 0
BBX 9 11 2 4
BITMAP
4080
6180
2300
3700
1E00
1C00
1C00
3600
6300
C300
0100
ENDCHAR
STARTCHAR Oslash
ENCODING 216
SWIDTH 382 0
DWIDTH 12 0
BBX 12 25 0 -3
BITMAP
0160
07C0
0FE0
18E0
19A0
31B0
3130
3130
6330
6230
6230
6630
4620
4460
4C60
CC60
48C0
48C0
7980
7380
3F00
3C00
2000
2000
2000
ENDCHAR
STARTCHAR Ugrave
ENCODING 217
SWIDTH 450 0
DWIDTH 14 0
BBX 13 30 1 -4
BITMAP
0800
0C00
0C00
0600
0200
0000
0010
C030
C030
C030
C030
C030
C030
C070
C070
C070
C070
C070
C0F0
C0D0
C090
C190
4110
6310
7E18
1818
0018
0018
0018
0010
ENDCHAR
STARTCHAR Uacute
ENCODING 218
SWIDTH 450 0
DWIDTH 14 0
BBX 13 27 1 -4
BITMAP
0180
0380
0700
0610
C030
C030
C030
C030
C030
C030
C070
C070
C070
C070
C070
C0F0
C0D0
C090
C190
4110
6310
7E18
1818
0018
0018
0018
0010
ENDCHAR
STARTCHAR Ucircumflex
ENCODING 219
SWIDTH 450 0
DWIDTH 14 0
BBX 13 34 1 -4
BITMAP
0400
0E00
0B00
1980
1080
30C0
6070
4030
4000
0000
0010
C030
C030
C030
C030
C030
C030
C070
C070
C070
C070
C070
C0F0
C0D0
C090
C190
4110
6310
7E18
1818
0018
0018
0018
0010
ENDCHAR
STARTCHAR Udieresis
ENCODING 220
SWIDTH 450 0
DWIDTH 14 0
BBX 13 28 1 -4
BITMAP
18C0
1980
0000
0000
0010
C030
C030
C030
C030
C030
C030
C070
C070
C070
C070
C070
C0F0
C0D0
C090
C190
4110
6310
7E18
1818
0018
0018
0018
0010
ENDCHAR
STARTCHAR Yacute
ENCODING 221
SWIDTH 483 0
DWIDTH 15 0
BBX 15 30 0 0
BITMAP
0060
00E0
01C0
0180
0000
0006
0006
0004
0004
000C
C00C
6008
7018
3018
1810
0C30
0E30
0720
03E0
01E0
00C0
00C0
00C0
0080
0180
0180
0300
0300
0300
0200
ENDCHAR
STARTCHAR Thorn
ENCODING 222
SWIDTH 398 0
DWIDTH 13 0
BBX 11 25 1 1
BITMAP
6000
4000
4000
C000
C000
C380
CFC0
DCE0
F060
E060
E060
C060
C060
C0C0
C0C0
C180
C700
DC00
F800
E000
C000
C000
C000
C000
C000
ENDCHAR
STARTCHAR germandbls
ENCODING 223
SWIDTH 537 0
DWIDTH 17 0
BBX 15 23 1 0
BITMAP
03E0
8F60
F820
F060
E040
C0C0
4180
431C
47FE
6F02
7C02
7806
3004
3008
2018
2030
3060
30C0
3180
1300
1600
1000
1000
ENDCHAR
STARTCHAR agrave
ENCODING 224
SWIDTH 366 0
DWIDTH 12 0
BBX 11 24 0 0
BITMAP
0800
0800
0C00
0600
0200
0000
0000
03C0
07C0
0EC0
1CC0
18C0
38C0
31C0
31C0
6340
6340
C660
CE60
CC60
D860
F860
7020
4020
ENDCHAR
STARTCHAR aacute
ENCODING 225
SWIDTH 366 0
DWIDTH 12 0
BBX 11 23 0 0
BITMAP
0100
0300
0600
0400
0000
0000
03C0
07C0
0EC0
1CC0
18C0
38C0
31C0
31C0
6340
6340
C660
CE60
CC60
D860
F860
7020
4020
ENDCHAR
STARTCHAR acircumflex
ENCODING 226
SWIDTH 366 0
DWIDTH 12 0
BBX 12 30 0 0
BITMAP
0400
0E00
1B00
1100
3180
20C0
6070
4020
C000
0000
0000
0000
0000
03C0
07C0
0EC0
1CC0
18C0
38C0
31C0
31C0
6340
6340
C660
CE60
CC60
D860
F860
7020
4020
ENDCHAR
STARTCHAR atilde
ENCODING 227
SWIDTH 366 0
DWIDTH 12 0
BBX 13 24 0 0
BITMAP
1C00
3E18
6338
63F0
01E0
0000
0000
03C0
07C0
0EC0
1CC0
18C0
38C0
31C0
31C0
6340
6340
C660
CE60
CC60
D860
F860
7020
4020
ENDCHAR
STARTCHAR adieresis
ENCODING 228
SWIDTH 366 0
DWIDTH 12 0
BBX 11 24 0 0
BITMAP
1980
1980
0000
0000
0000
0000
0000
03C0
07C0
0EC0
1CC0
18C0
38C0
31C0
31C0
6340
6340
C660
CE60
CC60
D860
F860
7020
4020
ENDCHAR
STARTCHAR aring
ENCODING 229
SWIDTH 366 0
DWIDTH 12 0
BBX 11 22 0 0
BITMAP
0700
1FC0
18C0
10C0
1CC0
0FC0
07C0
0EC0
1CC0
18C0
38C0
31C0
31C0
6340
6340
C660
CE60
CC60
D860
F860
7020
4020
ENDCHAR
STARTCHAR ae
ENCODING 230
SWIDTH 705 0
DWIDTH 23 0
BBX 22 18 0 0
BITMAP
000380
03CFE0
07CC60
0ED860
1CD8E0
18F380
38FF00
31FC00
31F000
63E00C
63601C
C66018
CE6030
CC6060
D860C0
F87F80
703E00
402000
ENDCHAR
STARTCHAR ccedilla
ENCODING 231
SWIDTH 390 0
DWIDTH 13 0
BBX 10 29 1 -10
BITMAP
1C00
3E00
7600
6600
6200
4200
C000
C000
C000
C000
8000
8040
8040
80C0
C0C0
C0C0
6180
7F00
3C00
3000
3000
3800
1E00
0F00
0380
01C0
03C0
3F80
1C00
ENDCHAR
STARTCHAR egrave
ENCODING 232
SWIDTH 461 0
DWIDTH 15 0
BBX 14 24 0 0
BITMAP
0400
0600
0700
0300
0100
0000
0000
0380
0FE0
0C60
1860
18E0
3380
3F00
7C00
7000
E00C
201C
2018
2030
2060
20C0
3F80
1E00
ENDCHAR
STARTCHAR eacute
ENCODING 233
SWIDTH 461 0
DWIDTH 15 0
BBX 14 23 0 0
BITMAP
00C0
01C0
0380
0300
0000
0000
0380
0FE0
0C60
1860
18E0
3380
3F00
7C00
7000
E00C
201C
2018
2030
2060
20C0
3F80
1E00
ENDCHAR
STARTCHAR ecircumflex
ENCODING 234
SWIDTH 461 0
DWIDTH 15 0
BBX 14 30 0 0
BITMAP
0200
0700
0780
0CC0
0860
1830
1038
3018
2000
0000
0000
0000
0000
0380
0FE0
0C60
1860
18E0
3380
3F00
7C00
7000
E00C
201C
2018
2030
2060
20C0
3F80
1E00
ENDCHAR
STARTCHAR edieresis
ENCODING 235
SWIDTH 461 0
DWIDTH 15 0
BBX 14 24 0 0
BITMAP
0660
0CE0
0000
0000
0000
0000
0000
0380
0FE0
0C60
1860
18E0
3380
3F00
7C00
7000
E00C
201C
2018
2030
2060
20C0
3F80
1E00
ENDCHAR
STARTCHAR igrave
ENCODING 236
SWIDTH 132 0
DWIDTH 4 0
BBX 3 26 0 0
BITMAP
80
C0
E0
60
20
00
00
00
60
60
60
60
60
60
60
60
60
60
60
60
60
60
60
60
60
60
ENDCHAR
STARTCHAR iacute
ENCODING 237
SWIDTH 132 0
DWIDTH 4 0
BBX 4 27 1 0
BITMAP
30
70
E0
C0
00
00
00
00
00
C0
C0
C0
C0
C0
C0
C0
C0
C0
C0
C0
C0
C0
C0
C0
C0
C0
C0
ENDCHAR
STARTCHAR icircumflex
ENCODING 238
SWIDTH 132 0
DWIDTH 4 0
BBX 11 30 -3 0
BITMAP
0800
1C00
1600
3300
6100
6180
C0E0
8060
8000
0000
0000
0000
0C00
0C00
0C00
0C00
0C00
0C00
0C00
0C00
0C00
0C00
0C00
0C00
0C00
0C00
0C00
0C00
0C00
0C00
ENDCHAR
STARTCHAR idieresis
ENCODING 239
SWIDTH 132 0
DWIDTH 4 0
BBX 6 24 -1 0
BITMAP
CC
CC
00
00
00
00
30
30
30
30
30
30
30
30
30
30
30
30
30
30
30
30
30
30
ENDCHAR
STARTCHAR eth
ENCODING 240
SWIDTH 481 0
DWIDTH 15 0
BBX 13 20 2 0
BITMAP
0800
0C00
0C00
0600
0200
0338
3FF0
3F80
0180
00C0
38C0
7CC0
FE40
C340
C1C0
C1C0
C180
4380
7F00
3C00
ENDCHAR
STARTCHAR ntilde
ENCODING 241
SWIDTH 483 0
DWIDTH 15 0
BBX 13 27 1 0
BITMAP
1E00
3F18
6338
61F0
01E0
0000
0000
0000
0040
81E0
C3F0
C710
C610
C618
CC18
CC18
CC18
C818
7818
7818
7018
7018
7008
7008
7008
6008
6000
ENDCHAR
STARTCHAR ograve
ENCODING 242
SWIDTH 266 0
DWIDTH 9 0
BBX 7 24 1 0
BITMAP
40
60
70
30
10
00
20
78
7C
44
C6
C6
86
86
86
86
86
86
86
8C
8C
D8
F8
60
ENDCHAR
STARTCHAR oacute
ENCODING 243
SWIDTH 266 0
DWIDTH 9 0
BBX 7 23 1 0
BITMAP
0C
1C
38
30
00
20
78
7C
44
C6
C6
86
86
86
86
86
86
86
8C
8C
D8
F8
60
ENDCHAR
STARTCHAR ocircumflex
ENCODING 244
SWIDTH 266 0
DWIDTH 9 0
BBX 11 30 -1 0
BITMAP
0800
1C00
1600
3300
2180
60C0
40E0
C060
8000
0000
0000
0000
0800
1E00
1F00
1100
3180
3180
2180
2180
2180
2180
2180
2180
2180
2300
2300
3600
3E00
1800
ENDCHAR
STARTCHAR otilde
ENCODING 245
SWIDTH 266 0
DWIDTH 9 0
BBX 12 25 -1 0
BITMAP
3C00
7E30
C670
C7E0
03C0
0000
0000
0800
1E00
1F00
1100
3180
3180
2180
2180
2180
2180
2180
2180
2180
2300
2300
3600
3E00
1800
ENDCHAR
STARTCHAR odieresis
ENCODING 246
SWIDTH 266 0
DWIDTH 9 0
BBX 7 24 1 0
BITMAP
66
CC
00
00
00
00
20
78
7C
44
C6
C6
86
86
86
86
86
86
86
8C
8C
D8
F8
60
ENDCHAR
STARTCHAR divide
ENCODING 247
SWIDTH 345 0
DWIDTH 11 0
BBX 9 10 1 4
BITMAP
0800
1800
0000
0000
FF80
F000
0000
0000
0800
0800
ENDCHAR
STARTCHAR oslash
ENCODING 248
SWIDTH 266 0
DWIDTH 9 0
BBX 9 22 0 -3
BITMAP
0180
1100
3F00
3F00
2200
6700
6700
4700
4F00
4B00
4B00
5B00
5300
7300
7600
6600
6C00
7C00
7000
C000
8000
8000
ENDCHAR
STARTCHAR ugrave
ENCODING 249
SWIDTH 387 0
DWIDTH 12 0
BBX 10 25 1 -1
BITMAP
1000
1800
1C00
0C00
0400
0000
0000
0000
8000
C080
C080
C080
C080
C180
C180
C180
C180
C180
C380
4380
47C0
6EC0
7CC0
38C0
0040
ENDCHAR
STARTCHAR uacute
ENCODING 250
SWIDTH 387 0
DWIDTH 12 0
BBX 10 24 1 -1
BITMAP
0300
0700
0E00
0C00
0000
0000
0000
8000
C080
C080
C080
C080
C180
C180
C180
C180
C180
C380
4380
47C0
6EC0
7CC0
38C0
0040
ENDCHAR
STARTCHAR ucircumflex
ENCODING 251
SWIDTH 387 0
DWIDTH 12 0
BBX 11 31 1 -1
BITMAP
0800
1C00
1600
3300
2180
6080
40E0
C060
8000
0000
0000
0000
0000
0000
8000
C080
C080
C080
C080
C180
C180
C180
C180
C180
C380
4380
47C0
6EC0
7CC0
38C0
0040
ENDCHAR
STARTCHAR udieresis
ENCODING 252
SWIDTH 387 0
DWIDTH 12 0
BBX 10 25 1 -1
BITMAP
3180
3300
0000
0000
0000
0000
0000
0000
8000
C080
C080
C080
C080
C180
C180
C180
C180
C180
C380
4380
47C0
6EC0
7CC0
38C0
0040
ENDCHAR
STARTCHAR yacute
ENCODING 253
SWIDTH 363 0
DWIDTH 12 0
BBX 10 35 1 -12
BITMAP
0200
0600
0C00
0800
0000
0000
0040
0040
80C0
C0C0
C0C0
60C0
70C0
30C0
18C0
18C0
0CC0
0EC0
07C0
03C0
03C0
01C0
00C0
0080
0080
0080
0080
0180
0180
0180
0180
0180
0180
0180
0180
ENDCHAR
STARTCHAR thorn
ENCODING 254
SWIDTH 439 0
DWIDTH 14 0
BBX 12 22 1 -1
BITMAP
C000
C000
C7F0
DC10
F010
E030
C030
C060
C0C0
C180
C300
CE00
DC00
7800
6000
C000
C000
C000
C000
C000
C000
C000
ENDCHAR
STARTCHAR ydieresis
ENCODING 255
SWIDTH 363 0
DWIDTH 12 0
BBX 10 36 1 -12
BITMAP
3300
3300
0000
0000
0000
0000
0000
0040
0040
80C0
C0C0
C0C0
60C0
70C0
30C0
18C0
18C0
0CC0
0EC0
07C0
03C0
03C0
01C0
00C0
0080
0080
0080
0080
0180
0180
0180
0180
0180
0180
0180
0180
ENDCHAR
STARTCHAR Amacron
ENCODING 256
SWIDTH 390 0
DWIDTH 13 0
BBX 15 28 0 0
BITMAP
01E0
FFF0
C000
0000
1800
1800
1C00
1C00
1E00
1600
3200
3300
3100
3100
3180
3180
308E
30FE
30C0
33C0
7EC0
7060
6060
6020
6020
6030
4030
0010
ENDCHAR
STARTCHAR amacron
ENCODING 257
SWIDTH 366 0
DWIDTH 12 0
BBX 12 24 0 0
BITMAP
00F0
FFF0
6000
0000
0000
0000
0000
03C0
07C0
0EC0
1CC0
18C0
38C0
31C0
31C0
6340
6340
C660
CE60
CC60
D860
F860
7020
4020
ENDCHAR
STARTCHAR Abreve
ENCODING 258
SWIDTH 390 0
DWIDTH 13 0
BBX 14 31 1 0
BITMAP
0100
4180
6300
3E00
1C00
0000
0000
3000
3000
3800
3800
3C00
2C00
6400
6600
6200
6200
6300
6300
611C
61FC
6180
6780
FD80
E0C0
C0C0
C040
C040
C060
8060
0020
ENDCHAR
STARTCHAR abreve
ENCODING 259
SWIDTH 366 0
DWIDTH 12 0
BBX 11 24 0 0
BITMAP
0040
30C0
19C0
0F80
0700
0000
0000
03C0
07C0
0EC0
1CC0
18C0
38C0
31C0
31C0
6340
6340
C660
CE60
CC60
D860
F860
7020
4020
ENDCHAR
STARTCHAR Aogonek
ENCODING 260
SWIDTH 390 0
DWIDTH 13 0
BBX 14 32 1 -8
BITMAP
3000
3000
3800
3800
3C00
2C00
6400
6600
6200
6200
6300
6300
611C
61FC
6180
6780
FD80
E0C0
C0C0
C040
C040
C060
8060
0020
00E0
00C0
0180
0180
0180
018C
00FC
0070
ENDCHAR
STARTCHAR aogonek
ENCODING 261
SWIDTH 366 0
DWIDTH 12 0
BBX 14 24 0 -7
BITMAP
03C0
07C0
0EC0
1CC0
18C0
38C0
31C0
31C0
6340
6340
C660
CE60
CC60
D860
F860
7060
40E0
0180
0180
0180
0100
019C
00FC
0070
ENDCHAR
STARTCHAR Cacute
ENCODING 262
SWIDTH 487 0
DWIDTH 16 0
BBX 14 28 1 0
BITMAP
0180
0380
0700
0600
0000
07C0
0EC0
0C40
1820
1000
3000
2000
6000
6000
6000
4000
C000
C000
C000
C00C
8018
8018
8030
8060
C0E0
C180
7F00
3E00
ENDCHAR
STARTCHAR cacute
ENCODING 263
SWIDTH 390 0
DWIDTH 13 0
BBX 10 26 1 0
BITMAP
0600
0E00
1C00
1800
0000
0000
0000
1C00
3E00
7600
6600
6200
4200
C000
C000
C000
C000
8000
8040
8040
80C0
C0C0
C0C0
6180
7F00
3C00
ENDCHAR
STARTCHAR Ccircumflex
ENCODING 264
SWIDTH 487 0
DWIDTH 16 0
BBX 14 32 1 0
BITMAP
0600
0600
0F00
0980
18C0
1060
3030
6010
4000
07C0
0EC0
0C40
1820
1000
3000
2000
6000
6000
6000
4000
C000
C000
C000
C00C
8018
8018
8030
8060
C0E0
C180
7F00
3E00
ENDCHAR
STARTCHAR ccircumflex
ENCODING 265
SWIDTH 390 0
DWIDTH 13 0
BBX 11 30 1 0
BITMAP
0800
1C00
1600
3300
2180
6080
40E0
C060
8000
0000
0000
1C00
3E00
7600
6600
6200
4200
C000
C000
C000
C000
8000
8040
8040
80C0
C0C0
C0C0
6180
7F00
3C00
ENDCHAR
STARTCHAR Cdotaccent
ENCODING 266
SWIDTH 487 0
DWIDTH 16 0
BBX 14 29 1 0
BITMAP
0200
0700
0200
0000
0000
0000
07C0
0EC0
0C40
1820
1000
3000
2000
6000
6000
6000
4000
C000
C000
C000
C00C
8018
8018
8030
8060
C0E0
C180
7F00
3E00
ENDCHAR
STARTCHAR cdotaccent
ENCODING 267
SWIDTH 390 0
DWIDTH 13 0
BBX 10 22 1 0
BITMAP
1800
1000
0000
1C00
3E00
7600
6600
6600
C200
C000
C000
C000
C000
8000
8040
8040
80C0
80C0
C0C0
4180
7F00
3C00
ENDCHAR
STARTCHAR Ccaron
ENCODING 268
SWIDTH 487 0
DWIDTH 16 0
BBX 14 30 1 0
BITMAP
2000
3030
1060
08C0
0D80
0600
0000
07C0
0EC0
0C40
1820
1000
3000
2000
6000
6000
6000
4000
C000
C000
C000
C00C
8018
8018
8030
8060
C0E0
C180
7F00
3E00
ENDCHAR
STARTCHAR ccaron
ENCODING 269
SWIDTH 390 0
DWIDTH 13 0
BBX 11 26 1 0
BITMAP
8000
4060
6080
3100
1600
1C00
0000
1C00
3E00
7600
6600
6200
4200
C000
C000
C000
C000
8000
8040
8040
80C0
C0C0
C0C0
6180
7F00
3C00
ENDCHAR
STARTCHAR Dcaron
ENCODING 270
SWIDTH 554 0
DWIDTH 18 0
BBX 16 30 1 0
BITMAP
1000
080C
0C18
0620
0240
0180
2000
3000
3FE0
7FF8
F00E
B003
3003
3001
3003
3003
3002
1006
1004
100C
1018
1030
1030
1060
10C0
1180
1300
1600
0C00
0800
ENDCHAR
STARTCHAR Emacron
ENCODING 274
SWIDTH 474 0
DWIDTH 15 0
BBX 14 28 1 0
BITMAP
01E0
FFF0
C000
0000
0000
40F0
C780
DE00
7800
6000
4000
4000
6000
6060
60C0
6380
6E00
7800
7000
6000
600C
6038
6060
61C0
6300
7E00
7800
2000
ENDCHAR
STARTCHAR emacron
ENCODING 275
SWIDTH 461 0
DWIDTH 15 0
BBX 14 24 0 0
BITMAP
0078
3FF8
3000
0000
0000
0000
0000
0380
0FE0
0C60
1860
18E0
3380
3F00
7C00
7000
E00C
201C
2018
2030
2060
20C0
3F80
1E00
ENDCHAR
STARTCHAR Ebreve
ENCODING 276
SWIDTH 474 0
DWIDTH 15 0
BBX 14 30 1 0
BITMAP
0020
1060
18C0
0F80
0700
0000
0000
40F0
C780
DE00
7800
6000
4000
4000
6000
6060
60C0
6380
6E00
7800
7000
6000
600C
6038
6060
61C0
6300
7E00
7800
2000
ENDCHAR
STARTCHAR ebreve
ENCODING 277
SWIDTH 461 0
DWIDTH 15 0
BBX 14 24 0 0
BITMAP
0010
0830
0C60
07C0
0380
0000
0000
0380
0FE0
0C60
1860
18E0
3380
3F00
7C00
7000
E00C
201C
2018
2030
2060
20C0
3F80
1E00
ENDCHAR
STARTCHAR Edotaccent
ENCODING 278
SWIDTH 474 0
DWIDTH 15 0
BBX 14 26 1 0
BITMAP
0400
0E00
0400
40F0
C780
DE00
7800
6000
4000
4000
6000
6060
60C0
6380
6E00
7800
7000
6000
600C
6038
6060
61C0
6300
7E00
7800
2000
ENDCHAR
STARTCHAR edotaccent
ENCODING 279
SWIDTH 461 0
DWIDTH 15 0
BBX 14 20 0 0
BITMAP
0100
0380
0100
0380
0FE0
0C60
1860
18E0
3380
3F00
7C00
7000
E00C
201C
2018
2030
2060
20C0
3F80
1E00
ENDCHAR
STARTCHAR Eogonek
ENCODING 280
SWIDTH 474 0
DWIDTH 15 0
BBX 14 26 1 -3
BITMAP
40F0
C780
DE00
7800
6000
4000
4000
6000
6060
60C0
6380
6E00
7800
7000
6000
600C
6038
6060
61C0
6380
7F00
7A00
2200
0218
03F8
01F0
ENDCHAR
STARTCHAR eogonek
ENCODING 281
SWIDTH 461 0
DWIDTH 15 0
BBX 14 24 0 -7
BITMAP
0380
0FE0
0C60
1860
18E0
3380
3F00
7C00
7000
E00C
201C
2018
2030
2060
20C0
3F80
1F00
0600
0C00
0C00
0C00
0EF0
07E0
0100
ENDCHAR
STARTCHAR Ecaron
ENCODING 282
SWIDTH 474 0
DWIDTH 15 0
BBX 14 30 1 0
BITMAP
4000
6060
30C0
1180
1B00
0E00
0000
40F0
C780
DE00
7800
6000
4000
4000
6000
6060
60C0
6380
6E00
7800
7000
6000
600C
6038
6060
61C0
6300
7E00
7800
2000
ENDCHAR
STARTCHAR ecaron
ENCODING 283
SWIDTH 461 0
DWIDTH 15 0
BBX 14 26 0 0
BITMAP
2000
1018
1830
0C40
0480
0300
0000
0000
0000
0380
0FE0
0C60
1860
18E0
3380
3F00
7C00
7000
E00C
201C
2018
2030
2060
20C0
3F80
1E00
ENDCHAR
STARTCHAR Gcircumflex
ENCODING 284
SWIDTH 591 0
DWIDTH 19 0
BBX 17 34 1 -4
BITMAP
010000
038000
03C000
066000
043000
0C1800
080C00
180C00
100000
007000
01F000
038000
060000
040000
0C0000
180000
100000
300780
203F80
607F00
400600
C00600
C00E00
C01E00
803E00
807600
C0E600
F3C600
7F0600
1C0600
000600
000600
000600
000200
ENDCHAR
STARTCHAR gcircumflex
ENCODING 285
SWIDTH 437 0
DWIDTH 14 0
BBX 13 44 0 -14
BITMAP
0200
0700
0D80
0C80
18C0
1060
3030
2018
6000
0000
0000
0000
00C0
03F0
0770
0C70
0870
18F0
30B0
31B0
21B0
6330
6330
4638
4638
CC38
7818
7818
0018
0018
0018
0018
0018
0018
0030
0030
0030
0020
0060
0060
00C0
0380
1F00
0C00
ENDCHAR
STARTCHAR Gbreve
ENCODING 286
SWIDTH 591 0
DWIDTH 19 0
BBX 17 31 1 -4
BITMAP
000800
061800
033800
01F000
00E000
000000
007000
01F000
038000
060000
040000
0C0000
180000
100000
300780
203F80
607F00
400600
C00600
C00E00
C01E00
803E00
807600
C0E600
F3C600
7F0600
1C0600
000600
000600
000600
000200
ENDCHAR
STARTCHAR gbreve
ENCODING 287
SWIDTH 437 0
DWIDTH 14 0
BBX 13 40 0 -14
BITMAP
0020
1860
0CE0
07C0
0380
0000
0000
0000
00C0
03F0
0770
0C70
0870
18F0
30B0
31B0
21B0
6330
6330
4638
4638
CC38
7818
7818
0018
0018
0018
0018
0018
0018
0030
0030
0030
0020
0060
0060
00C0
0380
1F00
0C00
ENDCHAR
STARTCHAR Gdotaccent
ENCODING 288
SWIDTH 591 0
DWIDTH 19 0
BBX 18 30 1 -4
BITMAP
004000
00C000
008000
000000
000000
003800
00F800
01C000
030000
060000
040000
0C0000
180000
1003C0
301F80
207F00
600300
600700
400700
400E00
C01E00
C03A00
C07200
73C200
3F8200
0C0300
000300
000300
000300
000200
ENDCHAR
STARTCHAR gdotaccent
ENCODING 289
SWIDTH 437 0
DWIDTH 14 0
BBX 13 36 0 -14
BITMAP
0080
01C0
0080
0000
00C0
03F0
0770
0C70
0870
18F0
30B0
31B0
21B0
6330
6330
4638
4638
CC38
7818
7818
0018
0018
0018
0018
0018
0018
0030
0030
0030
0020
0060
0060
00C0
0380
1F00
0C00
ENDCHAR
STARTCHAR Gcommaaccent
ENCODING 290
SWIDTH 591 0
DWIDTH 19 0
BBX 17 31 1 -10
BITMAP
007000
01F000
038000
060000
040000
0C0000
180000
100000
300780
203F80
607F00
400600
C00600
C00E00
C01E00
803E00
807600
C0E600
F3C600
7F0600
1C0600
000600
000600
000600
018200
018000
018000
018000
018000
018000
018000
ENDCHAR
STARTCHAR Hcircumflex
ENCODING 292
SWIDTH 424 0
DWIDTH 14 0
BBX 12 33 1 0
BITMAP
0800
1C00
1600
3300
2180
60C0
40E0
C060
8000
0000
0000
0000
C0C0
C0C0
C0C0
C040
C040
C040
C040
C040
C0E0
C1E0
C3E0
CE60
F860
F060
C020
C020
4020
4020
4030
4030
4020
ENDCHAR
STARTCHAR hcircumflex
ENCODING 293
SWIDTH 466 0
DWIDTH 15 0
BBX 14 30 1 0
BITMAP
0180
01C0
0340
0220
0630
0418
8C0C
C804
D800
C000
C000
C000
C000
C000
C060
C3F8
C798
C718
CE18
CC18
DC18
D818
D818
F018
F018
E018
E018
C018
C018
8018
ENDCHAR
STARTCHAR Hbar
ENCODING 294
SWIDTH 424 0
DWIDTH 14 0
BBX 13 21 0 0
BITMAP
6060
6060
6060
6020
6020
6FF0
FFE0
6020
6070
60F0
61F0
6730
7C30
7830
6010
6010
2010
2010
2018
2018
2010
ENDCHAR
STARTCHAR hbar
ENCODING 295
SWIDTH 466 0
DWIDTH 15 0
BBX 16 24 -2 0
BITMAP
1000
1800
1800
1800
1800
1800
1800
1FF0
FF0C
187F
18F3
18E3
19C3
1983
1B83
1B03
1B03
1E03
1E03
1C03
1C03
1803
1803
1003
ENDCHAR
STARTCHAR Itilde
ENCODING 296
SWIDTH 153 0
DWIDTH 5 0
BBX 12 32 -3 0
BITMAP
3800
FC70
C660
86E0
0380
0000
0000
0000
0400
0400
0400
0600
0600
0600
0600
0600
0600
0600
0600
0600
0600
0600
0600
0600
0600
0600
0600
0600
0600
0600
0600
0200
ENDCHAR
STARTCHAR itilde
ENCODING 297
SWIDTH 132 0
DWIDTH 4 0
BBX 12 25 -4 0
BITMAP
3C10
6E30
C670
C3E0
0180
0000
0000
0600
0600
0600
0600
0600
0600
0600
0600
0600
0600
0600
0600
0600
0600
0600
0600
0600
0600
ENDCHAR
STARTCHAR imacron
ENCODING 299
SWIDTH 132 0
DWIDTH 4 0
BBX 12 24 -4 0
BITMAP
00F0
7FF0
E000
0000
0000
0000
0600
0600
0600
0600
0600
0600
0600
0600
0600
0600
0600
0600
0600
0600
0600
0600
0600
0600
ENDCHAR
STARTCHAR Ibreve
ENCODING 300
SWIDTH 153 0
DWIDTH 5 0
BBX 8 31 -1 0
BITMAP
01
83
C6
7C
38
00
00
10
10
10
18
18
18
18
18
18
18
18
18
18
18
18
18
18
18
18
18
18
18
18
08
ENDCHAR
STARTCHAR ibreve
ENCODING 301
SWIDTH 132 0
DWIDTH 4 0
BBX 7 25 -1 0
BITMAP
82
C6
7E
38
00
00
00
30
30
30
30
30
30
30
30
30
30
30
30
30
30
30
30
30
30
ENDCHAR
STARTCHAR Iogonek
ENCODING 302
SWIDTH 153 0
DWIDTH 5 0
BBX 8 30 0 -6
BITMAP
20
20
20
30
30
30
30
30
30
30
30
30
30
30
30
30
30
30
30
30
30
30
30
70
60
C0
C0
C1
7F
7E
ENDCHAR
STARTCHAR iogonek
ENCODING 303
SWIDTH 132 0
DWIDTH 4 0
BBX 8 31 -1 -7
BITMAP
20
20
00
00
00
00
30
30
30
30
30
30
30
30
30
30
30
30
30
30
30
30
30
30
60
60
C0
C0
C1
6F
7E
ENDCHAR
STARTCHAR Idotaccent
ENCODING 304
SWIDTH 153 0
DWIDTH 5 0
BBX 3 29 1 0
BITMAP
40
E0
40
00
00
C0
C0
40
40
40
40
40
40
40
40
60
60
60
60
60
60
60
60
60
60
60
60
60
60
ENDCHAR
STARTCHAR dotlessi
ENCODING 305
SWIDTH 132 0
DWIDTH 4 0
BBX 2 18 1 0
BITMAP
C0
C0
C0
C0
C0
C0
C0
C0
C0
C0
C0
C0
C0
C0
C0
C0
C0
C0
ENDCHAR
STARTCHAR Jcircumflex
ENCODING 308
SWIDTH 371 0
DWIDTH 12 0
BBX 13 34 0 -2
BITMAP
0300
0380
0680
0440
0C60
0830
1818
1008
3000
0080
0080
0080
0080
0080
00C0
00C0
00C0
00C0
00C0
00C0
0040
0060
0060
0060
0060
0060
0060
8060
8060
4060
6060
2040
18C0
0F80
ENDCHAR
STARTCHAR jcircumflex
ENCODING 309
SWIDTH 112 0
DWIDTH 4 0
BBX 13 41 -6 -11
BITMAP
0300
0380
0680
04C0
0C60
0830
1818
1008
2000
0000
0000
0000
0000
0000
0180
0100
0100
0100
0180
0180
0180
0180
0180
0180
0180
0180
0180
0180
0080
0080
0080
0080
0080
0080
0080
0180
C180
6180
3300
1F00
0600
ENDCHAR
STARTCHAR Kcommaaccent
ENCODING 310
SWIDTH 524 0
DWIDTH 17 0
BBX 16 32 1 -10
BITMAP
8000
C000
C030
C060
40C0
4180
4180
4300
6600
6600
6C00
6800
7800
7000
7000
3000
3FFF
3FFE
3000
3000
3000
1000
0000
0000
0000
0300
0300
0300
0300
0300
0300
0300
ENDCHAR
STARTCHAR kcommaaccent
ENCODING 311
SWIDTH 428 0
DWIDTH 14 0
BBX 12 35 1 -10
BITMAP
4000
4000
6000
6000
6000
6000
E030
C030
C060
C0E0
C0C0
C1C0
C380
C300
C700
CE00
DC00
F800
F000
E000
F800
DE00
C7F0
C0F0
8020
8000
0000
0000
0400
0E00
0600
0600
0400
0400
0400
ENDCHAR
STARTCHAR Lacute
ENCODING 313
SWIDTH 537 0
DWIDTH 17 0
BBX 16 23 1 0
BITMAP
00C0
01C0
0180
C300
C000
C000
C000
C000
C000
C000
C000
C000
C000
C000
C000
E000
E007
E01E
E070
E1C0
EF00
7E00
7000
ENDCHAR
STARTCHAR lacute
ENCODING 314
SWIDTH 137 0
DWIDTH 4 0
BBX 4 34 0 1
BITMAP
30
70
60
C0
00
00
00
00
40
40
40
60
60
60
60
60
20
20
20
20
20
20
20
20
20
20
20
20
20
20
20
20
20
70
ENDCHAR
STARTCHAR Lcommaaccent
ENCODING 315
SWIDTH 537 0
DWIDTH 17 0
BBX 16 30 1 -10
BITMAP
C000
C000
C000
C000
C000
C000
C000
C000
C000
C000
C000
C000
E000
E007
E01E
E070
E1C0
EF00
7E00
7000
0000
0000
0000
0100
0380
0380
0100
0100
0300
0300
ENDCHAR
STARTCHAR lcommaaccent
ENCODING 316
SWIDTH 137 0
DWIDTH 4 0
BBX 3 37 1 -10
BITMAP
80
80
80
C0
C0
C0
C0
C0
40
40
40
40
40
40
40
40
40
40
40
40
40
40
40
40
40
E0
00
00
00
00
C0
C0
C0
C0
C0
C0
80
ENDCHAR
STARTCHAR Lcaron
ENCODING 317
SWIDTH 537 0
DWIDTH 17 0
BBX 16 30 1 0
BITMAP
4000
6060
30C0
1180
1B00
0E00
0000
0000
0000
0000
C000
C000
C000
C000
C000
C000
C000
C000
C000
C000
C000
C000
E000
E007
E01E
E070
E1C0
EF00
7E00
7000
ENDCHAR
STARTCHAR Ldot
ENCODING 319
SWIDTH 537 0
DWIDTH 17 0
BBX 16 20 1 0
BITMAP
C000
C000
C000
C000
C000
C000
C000
C000
C000
C000
C000
C380
E180
E007
E01E
E070
E1C0
EF00
7E00
7000
ENDCHAR
STARTCHAR ldot
ENCODING 320
SWIDTH 267 0
DWIDTH 9 0
BBX 6 26 1 1
BITMAP
80
80
80
C0
C0
C0
C0
C0
40
40
40
40
40
40
40
40
40
40
4C
4C
40
40
40
40
40
E0
ENDCHAR
STARTCHAR Lslash
ENCODING 321
SWIDTH 537 0
DWIDTH 17 0
BBX 18 20 -1 0
BITMAP
300000
300000
300000
300000
300000
300000
300000
300000
300000
306000
33F000
3F8000
FC0000
F801C0
380780
381C00
387000
3BC000
1F8000
1C0000
ENDCHAR
STARTCHAR lslash
ENCODING 322
SWIDTH 137 0
DWIDTH 4 0
BBX 12 26 -4 1
BITMAP
0400
0400
0400
0600
0600
0600
0600
0600
0200
0200
0200
0200
0200
0200
0200
0200
0200
02F0
07E0
1F00
FA00
0200
0200
0200
0200
0700
ENDCHAR
STARTCHAR Nacute
ENCODING 323
SWIDTH 541 0
DWIDTH 17 0
BBX 15 27 1 0
BITMAP
0100
0300
0600
0C18
000C
000C
800C
C00C
E00C
F00C
F80C
D80C
4C0C
4604
4704
4304
6184
60C4
6064
606C
603C
201C
200E
200E
3006
3000
2000
ENDCHAR
STARTCHAR nacute
ENCODING 324
SWIDTH 483 0
DWIDTH 15 0
BBX 13 24 1 0
BITMAP
0180
0300
0700
0600
0000
0040
81E0
C3F0
C710
C610
C618
CC18
CC18
CC18
C818
7818
7818
7018
7018
7008
7008
7008
6008
6000
ENDCHAR
STARTCHAR Ncommaaccent
ENCODING 325
SWIDTH 541 0
DWIDTH 17 0
BBX 15 34 1 -10
BITMAP
0018
000C
000C
800C
C00C
E00C
F00C
F80C
D80C
4C0C
4604
4704
4304
6184
60C4
6064
606C
603C
201C
200E
200E
3006
3000
2000
0000
0000
0000
0100
0380
0380
0100
0100
0100
0300
ENDCHAR
STARTCHAR ncommaaccent
ENCODING 326
SWIDTH 483 0
DWIDTH 15 0
BBX 13 29 1 -10
BITMAP
0040
81E0
C3F0
C710
C610
C618
CC18
CC18
CC18
C818
7818
7818
7018
7018
7008
7008
7008
6008
6000
0000
0000
0000
0200
0700
0300
0300
0200
0200
0200
ENDCHAR
STARTCHAR Ncaron
ENCODING 327
SWIDTH 541 0
DWIDTH 17 0
BBX 15 29 1 0
BITMAP
2000
3018
1820
0C40
0580
0718
000C
000C
800C
C00C
E00C
F00C
F80C
D80C
4C0C
4604
4704
4304
6184
60C4
6064
606C
603C
201C
200E
200E
3006
3000
2000
ENDCHAR
STARTCHAR ncaron
ENCODING 328
SWIDTH 483 0
DWIDTH 15 0
BBX 13 26 1 0
BITMAP
6000
2030
1060
18C0
0D00
0600
0000
0040
81E0
C3F0
C710
C610
C618
CC18
CC18
CC18
C818
7818
7818
7018
7018
7008
7008
7008
6008
6000
ENDCHAR
STARTCHAR napostrophe
ENCODING 329
SWIDTH 483 0
DWIDTH 15 0
BBX 13 28 1 0
BITMAP
1800
1800
1800
1800
1800
1800
1000
0000
0000
0040
81E0
C3F0
C710
C610
C618
CC18
CC18
CC18
C818
7818
7818
7018
7018
7008
7008
7008
6008
6000
ENDCHAR
STARTCHAR Omacron
ENCODING 332
SWIDTH 382 0
DWIDTH 12 0
BBX 13 26 0 0
BITMAP
0078
3FF8
3000
0000
0100
07C0
0FE0
1860
1820
3030
3030
3030
6030
6030
6030
6030
4020
4060
4060
C060
40C0
40C0
6180
7380
3F00
1C00
ENDCHAR
STARTCHAR omacron
ENCODING 333
SWIDTH 266 0
DWIDTH 9 0
BBX 11 24 -1 0
BITMAP
01E0
FFE0
C000
0000
0000
0000
0800
1E00
1F00
1100
3180
3180
2180
2180
2180
2180
2180
2180
2180
2300
2300
3600
3E00
1800
ENDCHAR
STARTCHAR Obreve
ENCODING 334
SWIDTH 382 0
DWIDTH 12 0
BBX 12 28 0 0
BITMAP
0040
30C0
19C0
0F80
0700
0000
0100
07C0
0FE0
1860
1820
3030
3030
3030
6030
6030
6030
6030
4020
4060
4060
C060
40C0
40C0
6180
7380
3F00
1C00
ENDCHAR
STARTCHAR obreve
ENCODING 335
SWIDTH 266 0
DWIDTH 9 0
BBX 8 24 1 0
BITMAP
02
83
C6
7C
38
00
20
78
7C
44
C6
C6
86
86
86
86
86
86
86
8C
8C
D8
F8
60
ENDCHAR
STARTCHAR Ohungarumlaut
ENCODING 336
SWIDTH 382 0
DWIDTH 12 0
BBX 13 28 0 0
BITMAP
0080
0198
03B0
0370
0260
0000
0100
07C0
0FE0
1860
1820
3030
3030
3030
6030
6030
6030
6030
4020
4060
4060
C060
40C0
40C0
6180
7380
3F00
1C00
ENDCHAR
STARTCHAR ohungarumlaut
ENCODING 337
SWIDTH 266 0
DWIDTH 9 0
BBX 7 24 1 0
BITMAP
10
32
76
EC
58
00
20
78
7C
44
C6
C6
86
86
86
86
86
86
86
8C
8C
D8
F8
60
ENDCHAR
STARTCHAR OE
ENCODING 338
SWIDTH 732 0
DWIDTH 23 0
BBX 23 23 0 0
BITMAP
000018
0160F0
07F3C0
0FFF00
187C00
183000
303000
303000
303010
603030
6030E0
603380
603E00
403800
407800
407802
C0780E
40D818
40D870
6198C0
739B80
3F1E00
1C1800
ENDCHAR
STARTCHAR oe
ENCODING 339
SWIDTH 628 0
DWIDTH 20 0
BBX 19 18 1 0
BITMAP
200000
783E00
7C7700
446380
C6C300
C6C600
879C00
87F000
87C000
878020
878060
8700E0
8701C0
8D0180
8D0300
D98E00
F8F800
606000
ENDCHAR
STARTCHAR Racute
ENCODING 340
SWIDTH 503 0
DWIDTH 16 0
BBX 15 30 1 0
BITMAP
0040
00C0
0180
0300
0000
C0C0
C7F8
DE1C
F00C
E00C
C018
C030
C0C0
C380
C600
DC00
F000
E000
E000
F800
DE00
C780
C1E0
C078
C01E
C004
C000
C000
C000
C000
ENDCHAR
STARTCHAR racute
ENCODING 341
SWIDTH 396 0
DWIDTH 13 0
BBX 11 23 1 0
BITMAP
0300
0700
0E00
0C00
0000
0000
0000
83E0
C7C0
CC00
CC00
D800
5800
5800
5800
5800
7800
7800
7000
3000
3000
3000
3000
ENDCHAR
STARTCHAR Rcommaaccent
ENCODING 342
SWIDTH 503 0
DWIDTH 16 0
BBX 15 35 1 -10
BITMAP
C0C0
C7F8
DE1C
F00C
E00C
C018
C030
C0C0
C380
C600
DC00
F000
E000
E000
F800
DE00
C780
C1E0
C078
C01E
C004
C000
C000
C000
C000
0000
0000
0000
0300
0300
0300
0300
0300
0200
0200
ENDCHAR
STARTCHAR rcommaaccent
ENCODING 343
SWIDTH 396 0
DWIDTH 13 0
BBX 11 26 1 -10
BITMAP
83E0
C7C0
CC00
CC00
D800
5800
5800
5800
5800
7800
7800
7000
3000
3000
3000
3000
0000
0000
0000
0C00
0C00
0C00
0C00
0C00
0C00
0C00
ENDCHAR
STARTCHAR Rcaron
ENCODING 344
SWIDTH 503 0
DWIDTH 16 0
BBX 15 33 1 0
BITMAP
2000
1018
0830
0C60
0680
0300
0000
0000
C0C0
C7F8
DE1C
F00C
E00C
C018
C030
C0C0
C380
C600
DC00
F000
E000
E000
F800
DE00
C780
C1E0
C078
C01E
C004
C000
C000
C000
C000
ENDCHAR
STARTCHAR rcaron
ENCODING 345
SWIDTH 396 0
DWIDTH 13 0
BBX 11 26 1 0
BITMAP
8000
4060
60C0
3100
1200
0C00
0000
0000
0000
0000
83E0
C7C0
CC00
CC00
D800
5800
5800
5800
5800
7800
7800
7000
3000
3000
3000
3000
ENDCHAR
STARTCHAR Sacute
ENCODING 346
SWIDTH 541 0
DWIDTH 17 0
BBX 17 27 0 1
BITMAP
006000
00E000
01C000
018000
000000
00F800
03F800
060000
0C0000
180000
300000
600000
600000
400000
C00000
C00000
600000
700000
1F8000
01FE00
000300
000180
000300
000E00
007800
03E000
0F0000
ENDCHAR
STARTCHAR sacute
ENCODING 347
SWIDTH 366 0
DWIDTH 12 0
BBX 10 24 1 -1
BITMAP
0200
0600
0C00
0800
0000
0000
0000
0F80
1F00
3000
6000
C000
C000
8000
8380
FFC0
F840
00C0
00C0
0180
0700
0E00
3C00
3000
ENDCHAR
STARTCHAR Scircumflex
ENCODING 348
SWIDTH 541 0
DWIDTH 17 0
BBX 17 32 0 1
BITMAP
008000
01C000
016000
033000
021800
060C00
040E00
0C0600
080000
000000
00F800
03F800
060000
0C0000
180000
300000
600000
600000
400000
C00000
C00000
600000
700000
1F8000
01FE00
000300
000180
000300
000E00
007800
03E000
0F0000
ENDCHAR
STARTCHAR scircumflex
ENCODING 349
SWIDTH 366 0
DWIDTH 12 0
BBX 11 27 1 -1
BITMAP
0800
1C00
1600
3300
2180
6080
40E0
C060
8000
0000
0F80
1F00
3000
6000
C000
C000
8000
8380
FFC0
F840
00C0
00C0
0180
0700
0E00
3C00
3000
ENDCHAR
STARTCHAR Scedilla
ENCODING 350
SWIDTH 541 0
DWIDTH 17 0
BBX 18 32 0 -9
BITMAP
00F800
03F800
060000
0C0000
180000
300000
600000
600000
400000
C00000
C00000
600000
700000
1F8000
01FE00
000300
000180
000300
000E00
007800
03E000
0F1000
003000
003000
003800
001E00
000F00
000380
0001C0
0003C0
003F80
001800
ENDCHAR
STARTCHAR scedilla
ENCODING 351
SWIDTH 366 0
DWIDTH 12 0
BBX 11 26 1 -10
BITMAP
0F80
1F00
3000
6000
C000
C000
8000
8380
FFC0
F840
00C0
00C0
0180
0700
0E00
3C00
3800
0800
0C00
0E00
0F80
01C0
00E0
00E0
0FC0
0F00
ENDCHAR
STARTCHAR Scaron
ENCODING 352
SWIDTH 541 0
DWIDTH 17 0
BBX 17 29 0 1
BITMAP
100000
080C00
041800
063000
034000
018000
000000
00F800
03F800
060000
0C0000
180000
300000
600000
600000
400000
C00000
C00000
600000
700000
1F8000
01FE00
000300
000180
000300
000E00
007800
03E000
0F0000
ENDCHAR
STARTCHAR scaron
ENCODING 353
SWIDTH 366 0
DWIDTH 12 0
BBX 10 25 1 -1
BITMAP
8000
C0C0
4180
2300
3600
1800
0000
0000
0F80
1F00
3000
6000
C000
C000
8000
8380
FFC0
F840
00C0
00C0
0180
0700
0E00
3C00
3000
ENDCHAR
STARTCHAR Tcommaaccent
ENCODING 354
SWIDTH 595 0
DWIDTH 19 0
BBX 22 33 0 -10
BITMAP
002004
003FF8
07FFC0
FF3000
603000
003000
003000
001000
001000
001000
001000
001800
001800
001800
001800
001800
001800
001800
000C00
000C00
000C00
000C00
000C00
000000
000000
000000
000600
000E00
000600
000600
000600
000400
000400
ENDCHAR
STARTCHAR tcommaaccent
ENCODING 355
SWIDTH 268 0
DWIDTH 9 0
BBX 10 34 -1 -10
BITMAP
1800
1800
1800
1800
1800
1800
18C0
1FC0
3F00
F800
F800
9800
1800
1800
1800
1800
1800
1800
1800
1800
1800
1800
1800
1800
0800
0000
0000
0C00
0C00
0C00
0C00
0C00
0C00
0C00
ENDCHAR
STARTCHAR Tcaron
ENCODING 356
SWIDTH 595 0
DWIDTH 19 0
BBX 22 32 0 0
BITMAP
010000
0180C0
00C100
006200
002C00
003800
000000
000000
000000
002004
003FF8
07FFC0
FF3000
603000
003000
003000
001000
001000
001000
001000
001800
001800
001800
001800
001800
001800
001800
000C00
000C00
000C00
000C00
000C00
ENDCHAR
STARTCHAR Tbar
ENCODING 358
SWIDTH 595 0
DWIDTH 19 0
BBX 22 23 0 0
BITMAP
002004
003FF8
07FFC0
FF3000
603000
003000
003000
001F80
07FF80
001000
001000
001800
001800
001800
001800
001800
001800
001800
000C00
000C00
000C00
000C00
000C00
ENDCHAR
STARTCHAR Utilde
ENCODING 360
SWIDTH 450 0
DWIDTH 14 0
BBX 13 31 1 -4
BITMAP
1C00
7E38
6630
4370
01C0
0000
0000
0010
C030
C030
C030
C030
C030
C030
C070
C070
C070
C070
C070
C0F0
C0D0
C090
C190
4110
6310
7E18
1818
0018
0018
0018
0010
ENDCHAR
STARTCHAR utilde
ENCODING 361
SWIDTH 387 0
DWIDTH 12 0
BBX 12 24 0 -1
BITMAP
3C00
7E30
C670
C7E0
03C0
0000
0000
4000
6040
6040
6040
6040
60C0
60C0
60C0
60C0
60C0
61C0
21C0
23E0
3760
3E60
1C60
0020
ENDCHAR
STARTCHAR Umacron
ENCODING 362
SWIDTH 450 0
DWIDTH 14 0
BBX 13 28 1 -4
BITMAP
00F0
7FF0
E000
0000
0010
C030
C030
C030
C030
C030
C030
C070
C070
C070
C070
C070
C0F0
C0D0
C090
C190
4110
6310
7E18
1818
0018
0018
0018
0010
ENDCHAR
STARTCHAR umacron
ENCODING 363
SWIDTH 387 0
DWIDTH 12 0
BBX 12 25 0 -1
BITMAP
00F0
7FF0
E000
0000
0000
0000
0000
0000
4000
6040
6040
6040
6040
60C0
60C0
60C0
60C0
60C0
61C0
21C0
23E0
3760
3E60
1C60
0020
ENDCHAR
STARTCHAR Ubreve
ENCODING 364
SWIDTH 450 0
DWIDTH 14 0
BBX 13 28 1 -4
BITMAP
0040
1040
19C0
0F80
0710
C030
C030
C030
C030
C030
C030
C070
C070
C070
C070
C070
C0F0
C0D0
C090
C190
4110
6310
7E18
1818
0018
0018
0018
0010
ENDCHAR
STARTCHAR ubreve
ENCODING 365
SWIDTH 387 0
DWIDTH 12 0
BBX 10 25 1 -1
BITMAP
0080
20C0
3180
1F00
0E00
0000
0000
0000
8000
C080
C080
C080
C080
C180
C180
C180
C180
C180
C380
4380
47C0
6EC0
7CC0
38C0
0040
ENDCHAR
STARTCHAR Uring
ENCODING 366
SWIDTH 450 0
DWIDTH 14 0
BBX 13 30 1 -4
BITMAP
0300
1F80
30C0
30C0
1980
1F00
0010
C030
C030
C030
C030
C030
C030
C070
C070
C070
C070
C070
C0F0
C0D0
C090
C190
4110
6310
7E18
1818
0018
0018
0018
0010
ENDCHAR
STARTCHAR uring
ENCODING 367
SWIDTH 387 0
DWIDTH 12 0
BBX 10 23 1 -1
BITMAP
0E00
3F00
7180
2180
3380
1E00
8000
C080
C080
C080
C080
C180
C180
C180
C180
C180
C380
4380
47C0
6EC0
7CC0
38C0
0040
ENDCHAR
STARTCHAR Uhungarumlaut
ENCODING 368
SWIDTH 450 0
DWIDTH 14 0
BBX 13 31 1 -4
BITMAP
0400
06C0
0DC0
1B80
1300
0000
0000
0010
C030
C030
C030
C030
C030
C030
C070
C070
C070
C070
C070
C0F0
C0D0
C090
C190
4110
6310
7E18
1818
0018
0018
0018
0010
ENDCHAR
STARTCHAR uhungarumlaut
ENCODING 369
SWIDTH 387 0
DWIDTH 12 0
BBX 10 23 1 -1
BITMAP
0800
1900
3B00
7600
2C00
0000
8000
C080
C080
C080
C080
C180
C180
C180
C180
C180
C380
4380
47C0
6EC0
7CC0
38C0
0040
ENDCHAR
STARTCHAR Uogonek
ENCODING 370
SWIDTH 450 0
DWIDTH 14 0
BBX 16 29 1 -9
BITMAP
0010
C030
C030
C030
C030
C030
C030
C070
C070
C070
C070
C070
C0F0
C0D0
C090
C190
4110
6310
7E18
1818
0018
0038
0078
00D0
00C0
00C0
00C7
007E
003C
ENDCHAR
STARTCHAR uogonek
ENCODING 371
SWIDTH 387 0
DWIDTH 12 0
BBX 13 23 1 -7
BITMAP
8000
C080
C080
C080
C080
C180
C180
C180
C180
C180
C380
4380
47C0
6EC0
7CC0
38C0
01C0
0300
0300
0200
0200
0338
03F0
ENDCHAR
STARTCHAR Wcircumflex
ENCODING 372
SWIDTH 878 0
DWIDTH 28 0
BBX 26 33 1 0
BITMAP
00080000
001C0000
00360000
00330000
00610000
00418000
00C0E000
00806000
01800000
00000080
000000C0
000000C0
00000080
80060180
C00E0180
C00E0180
600B0100
600B0300
601B0300
30198300
30118200
30318600
3030C600
1820C600
18604400
18606C00
1C406C00
0CC03C00
0CC03C00
0EC01800
07801800
07800000
03800000
ENDCHAR
STARTCHAR wcircumflex
ENCODING 373
SWIDTH 566 0
DWIDTH 18 0
BBX 16 30 1 0
BITMAP
0100
0380
06C0
0660
0C20
0830
181C
100C
3000
0000
0000
0000
0000
0000
8302
C383
C383
63C3
6263
6263
3633
3613
1E1B
1E0F
1E0F
0E07
0E03
0E03
0600
0600
ENDCHAR
STARTCHAR Ycircumflex
ENCODING 374
SWIDTH 483 0
DWIDTH 15 0
BBX 15 34 0 0
BITMAP
0300
0380
0680
0440
0C60
0830
1818
1008
3000
0006
0006
0004
0004
000C
C00C
6008
7018
3018
1810
0C30
0E30
0720
03E0
01E0
00C0
00C0
00C0
0080
0180
0180
0300
0300
0300
0200
ENDCHAR
STARTCHAR ycircumflex
ENCODING 375
SWIDTH 363 0
DWIDTH 12 0
BBX 11 42 0 -12
BITMAP
0C00
0E00
1A00
1100
3180
20C0
6060
4020
C000
0000
0000
0000
0000
0020
0020
4060
6060
6060
3060
3860
1860
0C60
0C60
0660
0760
03E0
01E0
01E0
00E0
0060
0040
0040
0040
0040
00C0
00C0
00C0
00C0
00C0
00C0
00C0
00C0
ENDCHAR
STARTCHAR Ydieresis
ENCODING 376
SWIDTH 483 0
DWIDTH 15 0
BBX 15 25 0 0
BITMAP
0006
0666
0E64
0004
000C
C00C
6008
7018
3018
1810
0C30
0E30
0720
03E0
01E0
00C0
00C0
00C0
0080
0180
0180
0300
0300
0300
0200
ENDCHAR
STARTCHAR Zacute
ENCODING 377
SWIDTH 670 0
DWIDTH 21 0
BBX 20 29 1 0
BITMAP
006000
00E000
00C000
018000
000000
000000
000000
FFFF80
FFFF80
000300
000600
000E00
001C00
003800
003000
006000
00E000
01C000
018000
030000
060000
0E0000
1C0000
180000
300000
600000
E000F0
FFFFF0
FFFF00
ENDCHAR
STARTCHAR zacute
ENCODING 378
SWIDTH 618 0
DWIDTH 20 0
BBX 20 23 1 0
BITMAP
002000
006000
00C000
008000
000000
000000
000000
007000
03F000
1F6000
F86000
E0E000
00C000
01C000
018000
030000
030000
060000
060000
0603F0
0C7FE0
0FFC00
0F8000
ENDCHAR
STARTCHAR Zdotaccent
ENCODING 379
SWIDTH 670 0
DWIDTH 21 0
BBX 20 26 1 0
BITMAP
004000
00E000
004000
000000
FFFF80
FFFF80
000300
000600
000E00
001C00
003800
003000
006000
00E000
01C000
018000
030000
060000
0E0000
1C0000
180000
300000
600000
E000F0
FFFFF0
FFFF00
ENDCHAR
STARTCHAR zdotaccent
ENCODING 380
SWIDTH 618 0
DWIDTH 20 0
BBX 20 20 1 0
BITMAP
004000
00C000
008000
000000
007000
03F000
1F6000
F86000
E0E000
00C000
01C000
018000
030000
030000
060000
060000
0603F0
0C7FE0
0FFC00
0F8000
ENDCHAR
STARTCHAR Zcaron
ENCODING 381
SWIDTH 670 0
DWIDTH 21 0
BBX 20 30 1 0
BITMAP
040000
020300
030600
018800
009000
00E000
000000
000000
FFFF80
FFFF80
000300
000600
000E00
001C00
003800
003000
006000
00E000
01C000
018000
030000
060000
0E0000
1C0000
180000
300000
600000
E000F0
FFFFF0
FFFF00
ENDCHAR
STARTCHAR zcaron
ENCODING 382
SWIDTH 618 0
DWIDTH 20 0
BBX 20 24 1 0
BITMAP
100000
181800
083000
046000
06C000
038000
000000
000000
007000
03F000
1F6000
F86000
E0E000
00C000
01C000
018000
030000
030000
060000
060000
0603F0
0C7FE0
0FFC00
0F8000
ENDCHAR
STARTCHAR florin
ENCODING 402
SWIDTH 345 0
DWIDTH 11 0
BBX 11 37 0 -8
BITMAP
0400
0F00
0F80
0D80
1C80
1800
1800
1800
1800
1800
1800
1800
1820
19E0
1FC0
1E00
3800
7800
1800
1800
1800
1800
1800
1800
1800
1800
1800
1800
1C00
1C00
1C00
0C00
0C00
0C00
0C00
F800
F800
ENDCHAR
STARTCHAR AEacute
ENCODING 508
SWIDTH 708 0
DWIDTH 23 0
BBX 21 29 1 1
BITMAP
004000
00C000
018000
010000
000000
000000
300000
3081E0
38C780
38DE00
3CF800
2CE000
64C000
664000
624000
624040
634180
634600
615C00
61F000
61E000
67E000
FCE018
E0E030
C0E0E0
C06180
C06700
C07C00
807800
ENDCHAR
STARTCHAR aeacute
ENCODING 509
SWIDTH 705 0
DWIDTH 23 0
BBX 22 23 0 0
BITMAP
000C00
001C00
003800
003000
000000
000380
03CFE0
07CC60
0ED860
1CD8E0
18F380
38FF00
31FC00
31F000
63E00C
63601C
C66018
CE6030
CC6060
D860C0
F87F80
703E00
402000
ENDCHAR
STARTCHAR Oslashacute
ENCODING 510
SWIDTH 382 0
DWIDTH 12 0
BBX 12 31 0 -3
BITMAP
0080
0180
0300
0200
0000
0020
0140
07C0
0FE0
18E0
19A0
31B0
3130
3130
6330
6230
6230
6630
4620
4460
4C60
CC60
48C0
48C0
7980
7380
3F00
3C00
2000
2000
2000
ENDCHAR
STARTCHAR oslashacute
ENCODING 511
SWIDTH 266 0
DWIDTH 9 0
BBX 9 27 0 -3
BITMAP
0600
0E00
1C00
1800
0000
0180
1100
3F00
3F00
2200
6700
6700
4700
4F00
4B00
4B00
5B00
5300
7300
7600
6600
6C00
7C00
7000
C000
8000
8000
ENDCHAR
STARTCHAR Scommaaccent
ENCODING 536
SWIDTH 541 0
DWIDTH 17 0
BBX 17 33 0 -10
BITMAP
00F800
03F800
060000
0C0000
180000
300000
600000
600000
400000
C00000
C00000
600000
700000
1F8000
01FE00
000300
000180
000300
000E00
007800
03E000
0F0000
000000
000000
000000
000000
008000
01C000
01C000
008000
008000
008000
018000
ENDCHAR
STARTCHAR scommaaccent
ENCODING 537
SWIDTH 366 0
DWIDTH 12 0
BBX 10 26 1 -10
BITMAP
0F80
1F00
3000
6000
C000
C000
8000
8380
FFC0
F840
00C0
00C0
0180
0700
0E00
3C00
3000
0000
0000
0C00
0C00
0C00
0C00
0C00
0800
0800
ENDCHAR
STARTCHAR circumflex
ENCODING 710
SWIDTH 390 0
DWIDTH 13 0
BBX 11 9 1 21
BITMAP
0800
1C00
1E00
3300
2180
60C0
4060
C060
8000
ENDCHAR
STARTCHAR caron
ENCODING 711
SWIDTH 390 0
DWIDTH 13 0
BBX 10 6 2 20
BITMAP
8000
C0C0
4180
2300
3600
1C00
ENDCHAR
STARTCHAR breve
ENCODING 728
SWIDTH 390 0
DWIDTH 13 0
BBX 8 5 2 19
BITMAP
01
C3
67
3E
18
ENDCHAR
STARTCHAR dotaccent
ENCODING 729
SWIDTH 128 0
DWIDTH 4 0
BBX 2 3 1 17
BITMAP
40
C0
80
ENDCHAR
STARTCHAR ring
ENCODING 730
SWIDTH 266 0
DWIDTH 9 0
BBX 8 6 0 16
BITMAP
0C
7F
E3
43
67
3E
ENDCHAR
STARTCHAR ogonek
ENCODING 731
SWIDTH 366 0
DWIDTH 12 0
BBX 8 9 3 -8
BITMAP
10
70
60
C0
C0
C0
C7
7E
38
ENDCHAR
STARTCHAR tilde
ENCODING 732
SWIDTH 458 0
DWIDTH 15 0
BBX 12 5 1 18
BITMAP
3C00
7E30
C670
C7E0
03C0
ENDCHAR
STARTCHAR hungarumlaut
ENCODING 733
SWIDTH 239 0
DWIDTH 8 0
BBX 7 5 0 15
BITMAP
10
32
76
EC
48
ENDCHAR
STARTCHAR Wgrave
ENCODING 7808
SWIDTH 878 0
DWIDTH 28 0
BBX 26 31 1 0
BITMAP
00080000
00080000
000C0000
00060000
00020000
00000000
00000000
00000080
000000C0
000000C0
00000080
80060180
C00E0180
C00E0180
600B0100
600B0300
601B0300
30198300
30118200
30318600
3030C600
1820C600
18604400
18606C00
1C406C00
0CC03C00
0CC03C00
0EC01800
07801800
07800000
03800000
ENDCHAR
STARTCHAR wgrave
ENCODING 7809
SWIDTH 566 0
DWIDTH 18 0
BBX 16 24 1 0
BITMAP
0200
0300
0300
0180
0080
0000
0000
0000
8302
C383
C383
63C3
6263
6263
3633
3613
1E1B
1E0F
1E0F
0E07
0E03
0E03
0600
0600
ENDCHAR
STARTCHAR Wacute
ENCODING 7810
SWIDTH 878 0
DWIDTH 28 0
BBX 26 29 1 0
BITMAP
000C0000
001C0000
00180000
00300000
00000000
00000080
000000C0
000000C0
00000080
80060180
C00E0180
C00E0180
600B0100
600B0300
601B0300
30198300
30118200
30318600
3030C600
1820C600
18604400
18606C00
1C406C00
0CC03C00
0CC03C00
0EC01800
07801800
07800000
03800000
ENDCHAR
STARTCHAR wacute
ENCODING 7811
SWIDTH 566 0
DWIDTH 18 0
BBX 16 23 1 0
BITMAP
0060
00C0
01C0
0180
0000
0000
0000
8302
C383
C383
63C3
6263
6263
3633
3613
1E1B
1E0F
1E0F
0E07
0E03
0E03
0600
0600
ENDCHAR
STARTCHAR Wdieresis
ENCODING 7812
SWIDTH 878 0
DWIDTH 28 0
BBX 26 27 1 0
BITMAP
00198000
00330000
00000000
00000080
000000C0
000000C0
00000080
80060180
C00E0180
C00E0180
600B0100
600B0300
601B0300
30198300
30118200
30318600
3030C600
1820C600
18604400
18606C00
1C406C00
0CC03C00
0CC03C00
0EC01800
07801800
07800000
03800000
ENDCHAR
STARTCHAR wdieresis
ENCODING 7813
SWIDTH 566 0
DWIDTH 18 0
BBX 16 24 1 0
BITMAP
0660
0660
0000
0000
0000
0000
0000
0000
8302
C383
C383
63C3
6263
6263
3633
3613
1E1B
1E0F
1E0F
0E07
0E03
0E03
0600
0600
ENDCHAR
STARTCHAR Ygrave
ENCODING 7922
SWIDTH 483 0
DWIDTH 15 0
BBX 15 32 0 0
BITMAP
0200
0300
0380
0180
0080
0000
0000
0006
0006
0004
0004
000C
C00C
6008
7018
3018
1810
0C30
0E30
0720
03E0
01E0
00C0
00C0
00C0
0080
0180
0180
0300
0300
0300
0200
ENDCHAR
STARTCHAR ygrave
ENCODING 7923
SWIDTH 363 0
DWIDTH 12 0
BBX 10 36 1 -12
BITMAP
1000
1000
1800
0C00
0C00
0000
0000
0040
0040
80C0
C0C0
C0C0
60C0
70C0
30C0
18C0
18C0
0CC0
0EC0
07C0
03C0
03C0
01C0
00C0
0080
0080
0080
0080
0180
0180
0180
0180
0180
0180
0180
0180
ENDCHAR
STARTCHAR endash
ENCODING 8211
SWIDTH 399 0
DWIDTH 13 0
BBX 12 4 0 6
BITMAP
00F0
07E0
1F00
F000
ENDCHAR
STARTCHAR emdash
ENCODING 8212
SWIDTH 549 0
DWIDTH 18 0
BBX 16 4 0 6
BITMAP
0007
00FF
1FF0
FC00
ENDCHAR
STARTCHAR quoteleft
ENCODING 8216
SWIDTH 155 0
DWIDTH 5 0
BBX 2 9 1 11
BITMAP
C0
C0
C0
C0
C0
40
40
40
40
ENDCHAR
STARTCHAR quoteright
ENCODING 8217
SWIDTH 155 0
DWIDTH 5 0
BBX 2 9 1 11
BITMAP
C0
C0
C0
C0
C0
40
40
40
40
ENDCHAR
STARTCHAR quotesinglbase
ENCODING 8218
SWIDTH 155 0
DWIDTH 5 0
BBX 3 9 1 0
BITMAP
C0
C0
C0
40
60
40
40
40
40
ENDCHAR
STARTCHAR quotedblleft
ENCODING 8220
SWIDTH 212 0
DWIDTH 7 0
BBX 5 9 1 16
BITMAP
90
98
D8
D8
D8
D8
D8
48
40
ENDCHAR
STARTCHAR quotedblright
ENCODING 8221
SWIDTH 212 0
DWIDTH 7 0
BBX 5 9 1 16
BITMAP
90
98
D8
D8
D8
D8
D8
48
40
ENDCHAR
STARTCHAR quotedblbase
ENCODING 8222
SWIDTH 212 0
DWIDTH 7 0
BBX 5 9 1 0
BITMAP
90
D8
D8
D8
D8
D8
58
48
40
ENDCHAR
STARTCHAR dagger
ENCODING 8224
SWIDTH 268 0
DWIDTH 9 0
BBX 10 25 -1 -1
BITMAP
1800
1800
1800
1800
1800
1800
18C0
1FC0
3F00
F800
F800
9800
1800
1800
1800
1800
1800
1800
1800
1800
1800
1800
1800
1800
0800
ENDCHAR
STARTCHAR daggerdbl
ENCODING 8225
SWIDTH 326 0
DWIDTH 10 0
BBX 11 25 0 -1
BITMAP
0800
0800
0800
0800
0800
0800
08C0
0FC0
1F00
FC00
7800
58C0
1FE0
3E00
7800
1800
1800
0800
0800
0800
0800
0800
0C00
0C00
0800
ENDCHAR
STARTCHAR bullet
ENCODING 8226
SWIDTH 189 0
DWIDTH 6 0
BBX 4 5 1 7
BITMAP
30
70
F0
F0
60
ENDCHAR
STARTCHAR ellipsis
ENCODING 8230
SWIDTH 387 0
DWIDTH 12 0
BBX 11 2 1 0
BITMAP
CCE0
CCC0
ENDCHAR
STARTCHAR guilsinglleft
ENCODING 8249
SWIDTH 409 0
DWIDTH 13 0
BBX 12 16 1 4
BITMAP
0030
0060
00E0
01C0
0700
0E00
1C00
3000
6000
E000
7800
1C00
0F00
03C0
00E0
0060
ENDCHAR
STARTCHAR guilsinglright
ENCODING 8250
SWIDTH 450 0
DWIDTH 14 0
BBX 12 17 1 4
BITMAP
4000
F000
3C00
0F00
0380
00E0
0070
0020
0060
00C0
0180
0300
0E00
1C00
3800
7000
C000
ENDCHAR
STARTCHAR fraction
ENCODING 8260
SWIDTH 306 0
DWIDTH 10 0
BBX 9 25 0 -3
BITMAP
0180
0100
0100
0300
0200
0200
0600
0600
0400
0C00
0C00
0800
0800
1800
1000
1000
3000
2000
2000
6000
6000
4000
C000
C000
4000
ENDCHAR
STARTCHAR Euro
ENCODING 8364
SWIDTH 589 0
DWIDTH 19 0
BBX 18 23 0 0
BITMAP
003C00
006C00
00C600
018000
018000
030000
030000
020000
060000
063000
3FE000
7E0000
040000
0C1800
0DF000
0F8000
FC0000
4C00C0
0C00C0
0C0180
040700
07FE00
03F800
ENDCHAR
STARTCHAR trademark
ENCODING 8482
SWIDTH 1278 0
DWIDTH 41 0
BBX 40 24 0 0
BITMAP
00000E0018
00200F0018
003FFF0018
07FF858038
FF3004C02C
603004C02C
003004606C
003004606C
001004204C
0010043044
00100610C4
0010061884
0018060884
0018060D84
0018060704
0018060704
0018060206
0018060006
0018060006
000C060006
000C070002
000C070003
000C070003
000C070002
ENDCHAR
STARTCHAR minus
ENCODING 8722
SWIDTH 358 0
DWIDTH 11 0
BBX 10 2 1 8
BITMAP
7FC0
F800
ENDCHAR
STARTCHAR commaaccent
ENCODING 63171
SWIDTH 450 0
DWIDTH 14 0
BBX 3 7 5 -10
BITMAP
40
E0
60
60
40
40
40
ENDCHAR
STARTCHAR fi
ENCODING 64257
SWIDTH 409 0
DWIDTH 13 0
BBX 10 29 1 0
BITMAP
0800
1E00
1F00
1B00
3900
3080
30C0
3000
3000
3000
3000
3040
3040
33C0
3FC0
3E40
7040
F040
3040
3040
3040
3040
3040
1040
1040
1840
1840
1840
1040
ENDCHAR
STARTCHAR fl
ENCODING 64258
SWIDTH 416 0
DWIDTH 13 0
BBX 11 29 1 0
BITMAP
0800
1E00
1F40
1BC0
3940
3040
3040
3040
3040
3040
3060
3060
3060
33E0
3FE0
3E60
7060
F060
3060
3060
3060
3060
3060
1060
1060
1860
1860
1860
1060
ENDCHAR
STARTCHAR .notdef
ENCODING -1
SWIDTH 450 0
DWIDTH 14 0
BBX 1 1 0 0
BITMAP
00
ENDCHAR
STARTCHAR .null
ENCODING -1
SWIDTH 0 0
DWIDTH 0 0
BBX 1 1 0 0
BITMAP
00
ENDCHAR
STARTCHAR nonmarkingreturn
ENCODING -1
SWIDTH 450 0
DWIDTH 14 0
BBX 1 1 0 0
BITMAP
00
ENDCHAR
ENDFONT
